<?xml version="1.0" encoding="UTF-8"?>
<svg version="1.1" xmlns="http://www.w3.org/2000/svg" width="512" height="512" fill="currentColor">
  <path d="M0 0 C1.78286396 -0.00648483 3.5657211 -0.01514296 5.34856516 -0.0257743 C10.22617922 -0.04851306 15.10331421 -0.04023103 19.98094404 -0.02663505 C25.24964477 -0.01736204 30.51825173 -0.03688353 35.78692627 -0.0526123 C46.1000243 -0.07867693 56.41294786 -0.07761795 66.72606628 -0.06657412 C75.10958531 -0.05800971 83.49305392 -0.05885123 91.87657356 -0.06637001 C93.07057455 -0.0674249 94.26457555 -0.06847979 95.49475839 -0.06956664 C97.92049675 -0.07173761 100.3462351 -0.07392438 102.77197344 -0.07612679 C125.50972556 -0.09554934 148.24737988 -0.08356567 170.985124 -0.06134085 C190.48555943 -0.0430912 209.98580552 -0.05399345 229.48622131 -0.08564758 C252.14205509 -0.12242178 274.79777063 -0.13942782 297.45363432 -0.12623531 C299.87066589 -0.12489423 302.28769748 -0.12358525 304.70472908 -0.12230873 C305.89389131 -0.12167807 307.08305353 -0.1210474 308.30825097 -0.12039762 C316.67899596 -0.11737234 325.04965162 -0.12862204 333.42037773 -0.14555931 C343.62552473 -0.1658976 353.83040456 -0.16499404 364.03553765 -0.13692691 C369.24017178 -0.1231674 374.44433969 -0.11894216 379.6489563 -0.14087677 C384.41799707 -0.16070987 389.18616229 -0.15260509 393.95514292 -0.12268243 C395.67573839 -0.11669853 397.39640559 -0.12072343 399.11694323 -0.13604566 C411.16612885 -0.23548707 420.95854628 1.52902518 430.2950592 9.82914734 C438.81387187 19.42681899 439.07998762 30.13719438 438.99920654 42.28408813 C439.00569137 44.0669521 439.0143495 45.84980924 439.02498084 47.6326533 C439.0477196 52.51026735 439.03943757 57.38740235 439.02584159 62.26503217 C439.01656859 67.5337329 439.03609007 72.80233987 439.05181885 78.0710144 C439.07788347 88.38411243 439.07682449 98.697036 439.06578066 109.01015442 C439.05721625 117.39367344 439.05805777 125.77714206 439.06557655 134.1606617 C439.06663144 135.35466269 439.06768633 136.54866368 439.06877318 137.77884652 C439.07094415 140.20458489 439.07313092 142.63032324 439.07533333 145.05606157 C439.09475588 167.7938137 439.08277222 190.53146801 439.06054739 213.26921213 C439.04229774 232.76964757 439.05319999 252.26989365 439.08485413 271.77030945 C439.12162832 294.42614323 439.13863436 317.08185877 439.12544185 339.73772246 C439.12410078 342.15475402 439.12279179 344.57178561 439.12151527 346.98881721 C439.12056928 348.77256055 439.12056928 348.77256055 439.11960417 350.59233911 C439.11657888 358.96308409 439.12782858 367.33373976 439.14476585 375.70446587 C439.16510414 385.90961287 439.16420058 396.11449269 439.13613345 406.31962579 C439.12237395 411.52425991 439.1181487 416.72842782 439.14008331 421.93304443 C439.15991642 426.7020852 439.15181163 431.47025043 439.12188897 436.23923106 C439.11590507 437.95982652 439.11992998 439.68049372 439.1352522 441.40103137 C439.23469361 453.45021699 437.47018136 463.24263441 429.1700592 472.57914734 C419.57238755 481.09796 408.86201216 481.36407576 396.71511841 481.28329468 C394.93225445 481.28977951 393.1493973 481.29843764 391.36655325 481.30906898 C386.48893919 481.33180774 381.61180419 481.32352571 376.73417437 481.30992973 C371.46547364 481.30065672 366.19686668 481.3201782 360.92819214 481.33590698 C350.61509411 481.36197161 340.30217055 481.36091263 329.98905212 481.3498688 C321.6055331 481.34130438 313.22206449 481.3421459 304.83854485 481.34966469 C303.64454385 481.35071958 302.45054286 481.35177446 301.22036002 481.35286132 C298.79462166 481.35503228 296.36888331 481.35721906 293.94314497 481.35942147 C271.20539285 481.37884402 248.46773853 481.36686035 225.72999441 481.34463552 C206.22955897 481.32638588 186.72931289 481.33728813 167.22889709 481.36894226 C144.57306331 481.40571646 121.91734777 481.4227225 99.26148409 481.40952998 C96.84445252 481.40818891 94.42742093 481.40687993 92.01038933 481.40560341 C90.8212271 481.40497274 89.63206488 481.40434208 88.40686743 481.4036923 C80.03612245 481.40066702 71.66546679 481.41191672 63.29474068 481.42885399 C53.08959368 481.44919228 42.88471385 481.44828872 32.67958076 481.42022159 C27.47494663 481.40646208 22.27077872 481.40223683 17.06616211 481.42417145 C12.29712134 481.44400455 7.52895612 481.43589977 2.75997549 481.40597711 C1.03938002 481.39999321 -0.68128718 481.40401811 -2.40182482 481.41934033 C-14.45101045 481.51878174 -24.24342787 479.75426949 -33.5799408 471.45414734 C-42.09875346 461.85647569 -42.36486921 451.1461003 -42.28408813 438.99920654 C-42.29057296 437.21634258 -42.29923109 435.43348544 -42.30986243 433.65064138 C-42.3326012 428.77302733 -42.32431917 423.89589233 -42.31072319 419.01826251 C-42.30145018 413.74956177 -42.32097166 408.48095481 -42.33670044 403.21228027 C-42.36276506 392.89918225 -42.36170609 382.58625868 -42.35066225 372.27314026 C-42.34209784 363.88962124 -42.34293936 355.50615262 -42.35045815 347.12263298 C-42.35151303 345.92863199 -42.35256792 344.734631 -42.35365478 343.50444816 C-42.35582574 341.07870979 -42.35801252 338.65297144 -42.36021493 336.2272331 C-42.37963748 313.48948098 -42.36765381 290.75182666 -42.34542898 268.01408254 C-42.32717933 248.51364711 -42.33808158 229.01340102 -42.36973572 209.51298523 C-42.40650992 186.85715145 -42.42351595 164.20143591 -42.41032344 141.54557222 C-42.40898237 139.12854065 -42.40767339 136.71150907 -42.40639687 134.29447746 C-42.4057662 133.10531524 -42.40513553 131.91615301 -42.40448576 130.69095557 C-42.40146047 122.32021059 -42.41271018 113.94955492 -42.42964745 105.57882881 C-42.44998573 95.37368181 -42.44908217 85.16880199 -42.42101505 74.96366889 C-42.40725554 69.75903477 -42.40303029 64.55486685 -42.4249649 59.35025024 C-42.44479801 54.58120947 -42.43669322 49.81304425 -42.40677056 45.04406362 C-42.40078666 43.32346816 -42.40481157 41.60280095 -42.42013379 39.88226331 C-42.5195752 27.83307769 -40.75506295 18.04066027 -32.4549408 8.70414734 C-22.85726914 0.18533467 -12.14689375 -0.08078108 0 0 Z M-21.5799408 22.39164734 C-25.95425282 29.28450266 -25.92537735 35.77357739 -25.86949158 43.71757507 C-25.86978363 44.81099716 -25.87007568 45.90441925 -25.87037659 47.03097534 C-25.86898818 50.62914589 -25.85344981 54.22710691 -25.8377533 57.82524109 C-25.83402143 60.32630297 -25.83117528 62.82736631 -25.82917786 65.32843018 C-25.82233335 71.22853328 -25.80658571 77.12855957 -25.78647888 83.02863127 C-25.75794024 91.58988058 -25.74751549 100.15115553 -25.73486328 108.71244049 C-25.71549308 120.68890455 -25.6771608 132.66517363 -25.6424408 144.64164734 C6.0375592 144.64164734 37.7175592 144.64164734 70.3575592 144.64164734 C70.3575592 102.40164734 70.3575592 60.16164734 70.3575592 16.64164734 C57.3431842 16.57977234 44.3288092 16.51789734 30.9200592 16.45414734 C26.82543274 16.42683533 22.73080627 16.39952332 18.51210022 16.37138367 C14.8106193 16.36134439 14.8106193 16.36134439 11.10913086 16.35531616 C9.47283474 16.35073859 7.83654812 16.34024841 6.20031738 16.32492065 C-8.88563998 15.56382941 -8.88563998 15.56382941 -21.5799408 22.39164734 Z M86.3575592 16.64164734 C86.3575592 122.24164734 86.3575592 227.84164734 86.3575592 336.64164734 C197.2375592 336.64164734 308.1175592 336.64164734 422.3575592 336.64164734 C422.4194342 286.66727234 422.4813092 236.69289734 422.5450592 185.20414734 C422.57237122 169.41514587 422.59968323 153.62614441 422.62782288 137.35868835 C422.63785517 123.22556403 422.63785517 123.22556403 422.64389038 109.09243774 C422.64668927 102.78946583 422.65769919 96.48657358 422.67428589 90.18362427 C422.69338907 82.91365582 422.70206535 75.64376385 422.69789406 68.37377011 C422.69608765 64.65526064 422.69894148 60.93692208 422.7152046 57.21844399 C422.73252534 53.23388275 422.72653456 49.24954838 422.71832275 45.26495361 C422.72706075 44.10865417 422.73579874 42.95235472 422.74480152 41.76101589 C422.70708435 34.95844681 422.54619315 27.60133244 418.08260125 22.05838877 C411.06049776 15.61137019 402.2715284 16.35877354 393.36734009 16.40113831 C392.05778351 16.39942627 390.74822693 16.39771423 389.39898682 16.39595032 C385.76776203 16.39147407 382.13665567 16.39947798 378.50544591 16.40950188 C374.52813392 16.41824516 370.55082724 16.415312 366.57350826 16.41386604 C358.85542478 16.41280337 351.13738789 16.42203172 343.41931638 16.4348687 C334.49048225 16.44927458 325.56167607 16.45085852 316.63282776 16.45243835 C293.06189753 16.46293696 269.49097767 16.49085921 245.9200592 16.51664734 C166.9366217 16.57852234 166.9366217 16.57852234 86.3575592 16.64164734 Z M-25.6424408 160.64164734 C-25.6424408 218.72164734 -25.6424408 276.80164734 -25.6424408 336.64164734 C6.0375592 336.64164734 37.7175592 336.64164734 70.3575592 336.64164734 C70.3575592 278.56164734 70.3575592 220.48164734 70.3575592 160.64164734 C38.6775592 160.64164734 6.9975592 160.64164734 -25.6424408 160.64164734 Z M-25.6424408 352.64164734 C-25.6424408 357.92164734 -25.6424408 363.20164734 -25.6424408 368.64164734 C-15.0824408 368.64164734 -4.5224408 368.64164734 6.3575592 368.64164734 C6.3575592 363.36164734 6.3575592 358.08164734 6.3575592 352.64164734 C-4.2024408 352.64164734 -14.7624408 352.64164734 -25.6424408 352.64164734 Z M22.3575592 352.64164734 C22.3575592 357.92164734 22.3575592 363.20164734 22.3575592 368.64164734 C48.7575592 368.64164734 75.1575592 368.64164734 102.3575592 368.64164734 C102.3575592 363.36164734 102.3575592 358.08164734 102.3575592 352.64164734 C75.9575592 352.64164734 49.5575592 352.64164734 22.3575592 352.64164734 Z M118.3575592 352.64164734 C118.3575592 389.60164734 118.3575592 426.56164734 118.3575592 464.64164734 C154.89386575 464.70779758 191.43011578 464.76318475 227.96646508 464.79484333 C232.28099331 464.7985954 236.5955214 464.80247837 240.91004944 464.80644226 C241.7689857 464.80722919 242.62792196 464.80801612 243.51288659 464.8088269 C257.41632469 464.82187689 271.31972554 464.8455285 285.22314154 464.87310573 C299.49184926 464.90117123 313.76053748 464.91782602 328.02927166 464.92391282 C336.83215967 464.92802689 345.63494238 464.94101573 354.43779797 464.96539674 C360.47619255 464.98126806 366.51453277 464.98604454 372.55294668 464.98215147 C376.0355671 464.98023209 379.51800364 464.98315159 383.00059128 464.99926376 C386.78109893 465.0141975 390.56115665 465.01059715 394.3416748 465.00241089 C395.43605234 465.01114941 396.53042988 465.01988794 397.65797037 465.02889127 C404.32088088 464.98991655 411.52180552 464.72586032 416.94319052 460.36668938 C441.23550119 433.86102363 422.3575592 388.59532135 422.3575592 352.64164734 C322.0375592 352.64164734 221.7175592 352.64164734 118.3575592 352.64164734 Z M-25.6424408 384.64164734 C-25.6424408 389.92164734 -25.6424408 395.20164734 -25.6424408 400.64164734 C-15.0824408 400.64164734 -4.5224408 400.64164734 6.3575592 400.64164734 C6.3575592 395.36164734 6.3575592 390.08164734 6.3575592 384.64164734 C-4.2024408 384.64164734 -14.7624408 384.64164734 -25.6424408 384.64164734 Z M22.3575592 384.64164734 C22.3575592 389.92164734 22.3575592 395.20164734 22.3575592 400.64164734 C48.7575592 400.64164734 75.1575592 400.64164734 102.3575592 400.64164734 C102.3575592 395.36164734 102.3575592 390.08164734 102.3575592 384.64164734 C75.9575592 384.64164734 49.5575592 384.64164734 22.3575592 384.64164734 Z M-25.6424408 416.64164734 C-25.6424408 421.92164734 -25.6424408 427.20164734 -25.6424408 432.64164734 C-15.0824408 432.64164734 -4.5224408 432.64164734 6.3575592 432.64164734 C6.3575592 427.36164734 6.3575592 422.08164734 6.3575592 416.64164734 C-4.2024408 416.64164734 -14.7624408 416.64164734 -25.6424408 416.64164734 Z M22.3575592 416.64164734 C22.3575592 421.92164734 22.3575592 427.20164734 22.3575592 432.64164734 C48.7575592 432.64164734 75.1575592 432.64164734 102.3575592 432.64164734 C102.3575592 427.36164734 102.3575592 422.08164734 102.3575592 416.64164734 C75.9575592 416.64164734 49.5575592 416.64164734 22.3575592 416.64164734 Z M-25.6424408 448.64164734 C-23.02056889 457.61789012 -23.02056889 457.61789012 -16.6424408 462.64164734 C-11.33704377 464.51452427 -6.73900068 464.89724121 -1.2049408 464.76664734 C2.5384967 464.70477234 2.5384967 464.70477234 6.3575592 464.64164734 C6.3575592 459.36164734 6.3575592 454.08164734 6.3575592 448.64164734 C-4.2024408 448.64164734 -14.7624408 448.64164734 -25.6424408 448.64164734 Z M22.3575592 448.64164734 C22.3575592 453.92164734 22.3575592 459.20164734 22.3575592 464.64164734 C48.7575592 464.64164734 75.1575592 464.64164734 102.3575592 464.64164734 C102.3575592 459.36164734 102.3575592 454.08164734 102.3575592 448.64164734 C75.9575592 448.64164734 49.5575592 448.64164734 22.3575592 448.64164734 Z " fill="#FFFFFF" transform="translate(57.64244079589844,15.358352661132813)"/>
  <path d="M0 0 C4.83885604 2.83691768 8.57600034 7.10301021 10.5625 12.375 C10.89679988 15.34557953 10.93511038 18.30964772 10.9765625 21.296875 C11.00561172 22.58685394 11.00561172 22.58685394 11.0352478 23.90289307 C11.09491814 26.64349521 11.1413786 29.38413964 11.1875 32.125 C11.22569134 33.98569517 11.26474375 35.84637288 11.3046875 37.70703125 C11.40060935 42.26287864 11.48468668 46.81880879 11.5625 51.375 C25.73815641 58.34331134 36.19980337 62.24247543 51.51025391 57.05859375 C56.31088876 55.45952432 61.22891956 54.09276607 66.3125 54 C67.02921875 53.97164062 67.7459375 53.94328125 68.484375 53.9140625 C71.56100722 54.5964734 72.57839414 55.93361974 74.5625 58.375 C76.13380401 60.88634493 77.4843342 63.47850667 78.8125 66.125 C79.17601562 66.80304688 79.53953125 67.48109375 79.9140625 68.1796875 C82.42673586 73.14835738 83.34714496 76.8080299 82.5625 82.375 C80.54296875 85.0625 80.54296875 85.0625 77.75 87.375 C76.2340625 88.6434375 76.2340625 88.6434375 74.6875 89.9375 C71.05468855 92.77109293 67.42742787 95.57053734 63.62255859 98.17016602 C60.51084488 100.33651108 60.51084488 100.33651108 57.65869141 102.93334961 C47.6763682 111.50185083 38.98181205 111.53443146 26.25 110.9375 C14.31270732 109.88287559 14.31270732 109.88287559 3.33056641 113.40576172 C1.11561998 115.6189767 -0.72722283 117.75806988 -2.4375 120.375 C-1.84324219 120.47522461 -1.24898437 120.57544922 -0.63671875 120.67871094 C2.09877644 121.14774413 4.83046607 121.6362249 7.5625 122.125 C8.49707031 122.28226562 9.43164062 122.43953125 10.39453125 122.6015625 C20.35927953 124.41333491 28.52407676 128.16231009 35.00390625 136.15234375 C40.462174 144.11978534 42.46323909 153.11668572 41.36328125 162.671875 C39.82109206 169.80355966 36.94375234 176.3535916 34.02880859 183.02001953 C32.93061321 185.5327403 31.84284296 188.04874554 30.76416016 190.56982422 C29.10874451 194.43805359 27.44150561 198.300982 25.76544189 202.16030884 C25.08962012 203.71747743 24.41590568 205.27556235 23.74432373 206.83456421 C22.79056992 209.04230151 21.82479844 211.24437736 20.85546875 213.4453125 C20.42455681 214.45022987 20.42455681 214.45022987 19.98493958 215.47544861 C18.48724999 218.84002363 17.70729655 220.27846897 14.5625 222.375 C7.33412665 223.25380552 2.83620139 220.95318388 -3.375 217.4375 C-4.23673828 216.96892578 -5.09847656 216.50035156 -5.98632812 216.01757812 C-12.1955711 212.6169289 -12.1955711 212.6169289 -13.4375 211.375 C-14.22446864 202.03721365 -12.62754236 192.97202731 -11 183.8125 C-10.76672232 182.4474116 -10.53429587 181.08217744 -10.30273438 179.71679688 C-8.60770089 169.88560268 -8.60770089 169.88560268 -7.4375 166.375 C-15.33195873 165.65970539 -23.11684761 165.13891711 -29.65478516 170.23779297 C-33.81684854 173.98557497 -37.53659208 178.12774391 -41.25 182.3125 C-43.20713795 184.43504347 -45.17654609 186.54526614 -47.1525116 188.65028381 C-48.36841136 189.9541288 -49.57130072 191.27026882 -50.75874329 192.6000824 C-51.30088974 193.1973262 -51.84303619 193.79457001 -52.40161133 194.40991211 C-52.86916336 194.93540146 -53.33671539 195.46089081 -53.81843567 196.00230408 C-57.54384172 199.1608257 -61.84327328 199.71328634 -66.56616211 200.24462891 C-67.78190414 200.38462311 -68.99764618 200.52461731 -70.25022888 200.66885376 C-71.55855179 200.81164764 -72.86687469 200.95444153 -74.21484375 201.1015625 C-75.58667914 201.25524616 -76.95846903 201.40933651 -78.33021545 201.56381226 C-81.20703327 201.88608666 -84.08436585 202.20315257 -86.9621582 202.51660156 C-90.61068579 202.91444847 -94.25758417 203.32544143 -97.90418148 203.74056435 C-100.74098688 204.06189141 -103.57858145 204.37577057 -106.41644478 204.687603 C-108.40285016 204.90720884 -110.38856596 205.13302446 -112.37425232 205.35903931 C-118.61808657 206.02998999 -124.8449248 206.53178637 -131.12329102 206.71630859 C-132.8000869 206.76614395 -132.8000869 206.76614395 -134.51075745 206.81698608 C-138.11276162 206.27302443 -139.25143532 205.23257346 -141.4375 202.375 C-141.95507812 199.78125 -141.95507812 199.78125 -141.96875 196.875 C-141.97390625 195.823125 -141.9790625 194.77125 -141.984375 193.6875 C-141.96117187 192.0478125 -141.96117187 192.0478125 -141.9375 190.375 C-141.95296875 189.281875 -141.9684375 188.18875 -141.984375 187.0625 C-141.97664062 185.4846875 -141.97664062 185.4846875 -141.96875 183.875 C-141.96423828 182.9159375 -141.95972656 181.956875 -141.95507812 180.96875 C-141.25407445 177.45579573 -140.33184284 176.5032423 -137.4375 174.375 C-134.43581488 173.01040245 -131.35050343 171.98127122 -128.21875 170.95703125 C-127.32385864 170.65431808 -126.42896729 170.35160492 -125.50695801 170.03971863 C-122.65407098 169.07784719 -119.79594873 168.1326982 -116.9375 167.1875 C-115.01396909 166.54076494 -113.09078758 165.8929897 -111.16796875 165.24414062 C-107.64460453 164.06001482 -104.12056992 162.87812441 -100.59179688 161.71020508 C-99.88438354 161.47578201 -99.17697021 161.24135895 -98.44812012 160.99983215 C-96.4375 160.375 -96.4375 160.375 -94.25744629 159.91331482 C-92.23857726 159.52974332 -92.23857726 159.52974332 -91.1640625 157.42675781 C-90.80054688 156.56920898 -90.43703125 155.71166016 -90.0625 154.828125 C-89.64049316 153.85246582 -89.21848633 152.87680664 -88.78369141 151.87158203 C-88.33944824 150.80020996 -87.89520508 149.72883789 -87.4375 148.625 C-86.96618652 147.51624512 -86.49487305 146.40749023 -86.00927734 145.26513672 C-84.99904348 142.88048017 -83.99587824 140.49281934 -82.99902344 138.10253906 C-81.70008756 134.98954738 -80.37136394 131.89037086 -79.03179932 128.79467773 C-77.69635684 125.70169053 -76.3807477 122.60035382 -75.0625 119.5 C-74.57523437 118.3749707 -74.08796875 117.24994141 -73.5859375 116.09082031 C-69.53542593 106.41799839 -66.92734379 96.54468893 -64.4375 86.375 C-65.04249329 86.38388245 -65.64748657 86.39276489 -66.27081299 86.4019165 C-72.56472328 86.49037593 -78.85845713 86.55072842 -85.15283203 86.59472656 C-87.50218884 86.61484814 -89.85149554 86.64214851 -92.20068359 86.67675781 C-95.57662315 86.7252504 -98.95190086 86.74796357 -102.328125 86.765625 C-103.37929504 86.78627014 -104.43046509 86.80691528 -105.51348877 86.82818604 C-112.71642002 86.83040501 -112.71642002 86.83040501 -116.09863281 84.69433594 C-117.71992917 81.88574451 -117.95352087 80.11227752 -117.96875 76.875 C-117.97390625 75.823125 -117.9790625 74.77125 -117.984375 73.6875 C-117.96890625 72.594375 -117.9534375 71.50125 -117.9375 70.375 C-117.95296875 69.281875 -117.9684375 68.18875 -117.984375 67.0625 C-117.97921875 66.010625 -117.9740625 64.95875 -117.96875 63.875 C-117.96423828 62.9159375 -117.95972656 61.956875 -117.95507812 60.96875 C-117.27339824 57.55263342 -116.17423365 56.50083793 -113.4375 54.375 C-110.49584961 52.8828125 -110.49584961 52.8828125 -107.08984375 51.5 C-106.47790665 51.24879395 -105.86596954 50.99758789 -105.23548889 50.73876953 C-103.28569849 49.94136524 -101.33050614 49.15826615 -99.375 48.375 C-98.08883406 47.84983584 -96.80302317 47.32380123 -95.51757812 46.796875 C-92.99495564 45.76537325 -90.46478679 44.75697395 -87.92651367 43.76464844 C-85.83373317 42.93110938 -83.75438673 42.06042203 -81.70825195 41.11816406 C-72.96856291 37.31910393 -64.09008175 37.92982037 -54.75 38.125 C-53.06577657 38.14510626 -51.38152983 38.1633497 -49.69726562 38.1796875 C-45.61009142 38.22333277 -41.52405929 38.29212773 -37.4375 38.375 C-37.4689209 37.13411621 -37.4689209 37.13411621 -37.50097656 35.86816406 C-37.58411619 32.1205663 -37.63615531 28.37316251 -37.6875 24.625 C-37.72101563 23.32304688 -37.75453125 22.02109375 -37.7890625 20.6796875 C-37.80839844 18.80410156 -37.80839844 18.80410156 -37.828125 16.890625 C-37.8595459 15.16247559 -37.8595459 15.16247559 -37.89160156 13.39941406 C-37.33562893 9.69651679 -36.34708824 8.65218105 -33.4375 6.375 C-23.43513471 -0.14153028 -11.59427557 -5.04286335 0 0 Z M-21.4375 19.375 C-21.4375 20.365 -21.4375 21.355 -21.4375 22.375 C-16.1575 22.375 -10.8775 22.375 -5.4375 22.375 C-5.75938877 16.85936516 -5.75938877 16.85936516 -7.4375 15.375 C-13.04441724 14.6912296 -16.7104904 16.68756307 -21.4375 19.375 Z M-21.4375 38.375 C-21.6017691 46.16069784 -21.6017691 46.16069784 -18.4375 52.375 C-15.59666359 53.79541821 -13.58272722 53.68952272 -10.4375 53.375 C-7.58969381 51.14293569 -6.58752334 49.82507001 -5.4375 46.375 C-5.4375 43.735 -5.4375 41.095 -5.4375 38.375 C-10.7175 38.375 -15.9975 38.375 -21.4375 38.375 Z M-61.4375 54.375 C-61.4375 59.655 -61.4375 64.935 -61.4375 70.375 C-56.89648438 70.61914062 -56.89648438 70.61914062 -52.35546875 70.86328125 C-49.12608456 71.42961235 -48.39935199 71.85491779 -46.4375 74.375 C-45.12614007 80.86911516 -47.25386145 87.53430256 -49 93.75 C-49.48798863 95.50573976 -49.96880409 97.26349369 -50.44140625 99.0234375 C-50.65611572 99.78833496 -50.8708252 100.55323242 -51.09204102 101.34130859 C-51.63448426 103.56844188 -51.63448426 103.56844188 -50.4375 106.375 C-47.75422491 107.73544374 -47.75422491 107.73544374 -44.43359375 108.85546875 C-43.21865234 109.29697266 -42.00371094 109.73847656 -40.75195312 110.19335938 C-39.45972377 110.64998968 -38.16740485 111.10636662 -36.875 111.5625 C-35.57839314 112.0295373 -34.28216359 112.49762354 -32.98632812 112.96679688 C-29.80695565 114.11326204 -26.6240883 115.24877939 -23.4375 116.375 C-22.84211426 115.77437744 -22.24672852 115.17375488 -21.63330078 114.55493164 C-19.42502141 112.32961906 -17.21450557 110.10655962 -15.00244141 107.88500977 C-14.04515619 106.92269305 -13.08877006 105.95948108 -12.13330078 104.99536133 C-10.76050212 103.61044555 -9.38420528 102.22900009 -8.0078125 100.84765625 C-7.18039551 100.01500244 -6.35297852 99.18234863 -5.50048828 98.32446289 C-1.90484971 94.92669082 1.25219033 95.1695631 5.9765625 95.05859375 C6.70620209 95.03781265 7.43584167 95.01703156 8.18759155 94.99562073 C10.52079763 94.93018083 12.85411721 94.87126632 15.1875 94.8125 C16.76824095 94.76930947 18.34897039 94.72569501 19.9296875 94.68164062 C23.80717504 94.57450519 27.68477685 94.47322218 31.5625 94.375 C31.10193631 91.66551363 30.61957916 88.96503948 30.09228516 86.26757812 C29.5625 83.375 29.5625 83.375 29.2109375 79.53125 C26.36029821 74.07315392 20.74898538 72.9063666 15.1875 70.875 C14.03765625 70.42125 12.8878125 69.9675 11.703125 69.5 C5.24978897 66.64647516 5.24978897 66.64647516 -1.4375 67.375 C-2.58412109 67.89126953 -2.58412109 67.89126953 -3.75390625 68.41796875 C-7.06938434 69.60034449 -9.85960971 69.67604922 -13.375 69.6875 C-15.15197266 69.71263672 -15.15197266 69.71263672 -16.96484375 69.73828125 C-22.22131419 69.18839177 -26.1337433 66.93971721 -30.125 63.5625 C-30.68574219 63.10230469 -31.24648438 62.64210938 -31.82421875 62.16796875 C-33.4375 60.375 -33.4375 60.375 -36.4375 54.375 C-44.6875 54.375 -52.9375 54.375 -61.4375 54.375 Z M-89.4375 62.6875 C-90.47390625 63.09162109 -91.5103125 63.49574219 -92.578125 63.91210938 C-93.56296875 64.30849609 -94.5478125 64.70488281 -95.5625 65.11328125 C-96.92761719 65.65529175 -96.92761719 65.65529175 -98.3203125 66.20825195 C-100.77168715 67.24715431 -100.77168715 67.24715431 -101.4375 70.375 C-93.5175 70.375 -85.5975 70.375 -77.4375 70.375 C-77.4375 66.415 -77.4375 62.455 -77.4375 58.375 C-81.26797936 58.375 -85.92626913 61.27907717 -89.4375 62.6875 Z M51.875 74.375 C51.17310547 74.56578125 50.47121094 74.7565625 49.74804688 74.953125 C48.01861238 75.42371942 46.29043126 75.89891562 44.5625 76.375 C45.5525 80.005 46.5425 83.635 47.5625 87.375 C51.33943016 85.18617576 54.85823979 82.7721069 58.375 80.1875 C59.35082031 79.47207031 60.32664062 78.75664062 61.33203125 78.01953125 C62.06808594 77.47683594 62.80414063 76.93414062 63.5625 76.375 C63.2325 75.055 62.9025 73.735 62.5625 72.375 C58.79923413 72.375 55.47132789 73.38105691 51.875 74.375 Z M-56.4375 121.375 C-58.83753848 126.17507696 -58.19535572 133.48695524 -56.859375 138.578125 C-54.33995177 143.66277916 -49.4257242 146.96967506 -44.4375 149.375 C-39.02310358 150.57468211 -33.6316674 150.57688646 -28.11328125 150.65625 C-27.13006393 150.67465942 -26.14684662 150.69306885 -25.13383484 150.71203613 C-20.94276403 150.79044275 -16.75154301 150.85859509 -12.56030273 150.92724609 C-9.49454771 150.97894677 -6.4289308 151.03618178 -3.36328125 151.09375 C-2.41326736 151.10732544 -1.46325348 151.12090088 -0.48445129 151.1348877 C0.3968898 151.15160522 1.2782309 151.16832275 2.1862793 151.18554688 C2.9609404 151.19807495 3.7356015 151.21060303 4.53373718 151.22351074 C6.5625 151.375 6.5625 151.375 9.5625 152.375 C9.96611633 161.87680117 8.71844868 170.86862103 7.0625 180.1875 C6.7015551 182.2453704 6.34368576 184.30363655 5.99255371 186.36320496 C5.67567202 188.2183287 5.34889918 190.0717551 5.02148438 191.92504883 C4.55249876 195.4501742 4.48314963 198.82322089 4.5625 202.375 C5.2225 202.375 5.8825 202.375 6.5625 202.375 C10.10223847 194.49431589 13.61489895 186.6024471 17.09619141 178.69580078 C17.96975426 176.71741217 18.84794242 174.74103986 19.73583984 172.76904297 C24.57946146 162.4237005 24.57946146 162.4237005 23.5625 151.375 C21.2318852 146.38082542 18.34224921 143.19939529 13.32421875 140.875 C8.36161018 139.07600548 3.31973377 138.61339217 -1.89819336 137.99291992 C-20.28342659 135.78894175 -36.08969048 130.10354044 -52.89428711 122.48901367 C-55.12741276 121.30812844 -55.12741276 121.30812844 -56.4375 121.375 Z M-69.4375 150.375 C-70.35501482 152.35377362 -71.27146224 154.33304217 -72.1875 156.3125 C-72.98074081 158.02517902 -73.77490951 159.73750107 -74.58612061 161.44174194 C-75.48249832 163.39343604 -75.48249832 163.39343604 -76.16241455 165.57119751 C-77.35996818 168.92615932 -78.33610178 171.60029665 -81.31365967 173.69465637 C-83.65841064 174.71937624 -85.98736208 175.50820017 -88.4375 176.24609375 C-89.31019531 176.5393605 -90.18289063 176.83262726 -91.08203125 177.13478088 C-93.85768108 178.05998198 -96.64583152 178.93697069 -99.4375 179.8125 C-102.22478992 180.72371089 -105.00884699 181.64436386 -107.79296875 182.56520081 C-109.52214298 183.13301512 -111.25384915 183.69319071 -112.98828125 184.24473572 C-113.77589844 184.49582596 -114.56351563 184.7469162 -115.375 185.00561523 C-116.06464844 185.22273666 -116.75429687 185.43985809 -117.46484375 185.66355896 C-119.55171827 186.41619297 -121.47370954 187.34658076 -123.4375 188.375 C-118.92745531 188.10747525 -114.41862119 187.82470423 -109.91015625 187.53204346 C-108.25936716 187.42719846 -106.60831485 187.32642003 -104.95703125 187.22967529 C-79.11916011 186.92424009 -79.11916011 186.92424009 -56.796875 176.30297852 C-53.99355588 173.13786292 -51.63766351 169.98955434 -49.4375 166.375 C-50.7947399 163.6605202 -52.23081595 163.49204557 -55 162.3125 C-60.21171852 159.82645036 -63.33550715 156.61548616 -66.94140625 152.16796875 C-67.43511719 151.57628906 -67.92882812 150.98460937 -68.4375 150.375 C-68.7675 150.375 -69.0975 150.375 -69.4375 150.375 Z " fill="#FFFFFF" transform="translate(349.4375,49.625)"/>
  <path d="M0 0 C1.18142578 -0.01891296 1.18142578 -0.01891296 2.38671875 -0.03820801 C3.22847656 -0.03011108 4.07023438 -0.02201416 4.9375 -0.01367188 C6.24654297 -0.01941223 6.24654297 -0.01941223 7.58203125 -0.02526855 C9.42449092 -0.02798678 11.26698924 -0.02063182 13.109375 -0.00390625 C15.92795934 0.01750565 18.74399485 -0.00370989 21.5625 -0.02929688 C23.35417229 -0.02665358 25.14584299 -0.02152857 26.9375 -0.01367188 C27.77925781 -0.0217688 28.62101563 -0.02986572 29.48828125 -0.03820801 C33.14454221 0.02032358 35.32166084 0.12970614 38.46020508 2.10644531 C41.37502333 6.86379864 40.64125779 12.62498797 40.6237793 18.05175781 C40.62498959 20.24868718 40.68463714 22.43886446 40.74804688 24.63476562 C40.89799848 36.37578364 40.89799848 36.37578364 36.7578125 41.16210938 C35.51192574 42.31120824 34.23921002 43.4321229 32.9375 44.51757812 C31.92090914 45.55861005 30.91362621 46.60885135 29.91796875 47.66992188 C28.99628906 48.58902344 28.07460938 49.508125 27.125 50.45507812 C26.64869141 50.93525391 26.17238281 51.41542969 25.68164062 51.91015625 C22.39449671 55.18805363 20.93687935 56.39900769 16.25 56.95507812 C11.69626568 56.93010335 9.43980268 55.03086676 6.1875 52.02539062 C4.9375 50.51757812 4.9375 50.51757812 4.9375 48.51757812 C-52.1525 48.51757812 -109.2425 48.51757812 -168.0625 48.51757812 C-168.0625 43.23757813 -168.0625 37.95757812 -168.0625 32.51757812 C-115.2625 32.51757812 -62.4625 32.51757812 -8.0625 32.51757812 C-8.0625 23.27757812 -8.0625 14.03757812 -8.0625 4.51757812 C-3.5613557 0.01643383 -3.5613557 0.01643383 0 0 Z M7.9375 16.51757812 C6.99282866 24.57644833 6.99282866 24.57644833 9.49609375 31.93945312 C11.23207246 33.63002394 12.95512554 35.12688175 14.9375 36.51757812 C18.86016053 34.61492013 21.35870799 33.17086681 23.9375 29.51757812 C24.37214245 25.09603021 24.16282662 20.97904524 23.9375 16.51757812 C18.6575 16.51757812 13.3775 16.51757812 7.9375 16.51757812 Z " fill="#FFFFFF" transform="translate(328.0625,279.482421875)"/>
  <path d="M0 0 C47.52 0 95.04 0 144 0 C144 5.28 144 10.56 144 16 C96.48 16 48.96 16 0 16 C0 10.72 0 5.44 0 0 Z " fill="#FFFFFF" transform="translate(288,416)"/>
  <path d="M0 0 C34.32 0 68.64 0 104 0 C104 5.28 104 10.56 104 16 C69.68 16 35.36 16 0 16 C0 10.72 0 5.44 0 0 Z " fill="#FFFFFF" transform="translate(208,384)"/>
  <path d="M0 0 C26.4 0 52.8 0 80 0 C80 5.28 80 10.56 80 16 C53.6 16 27.2 16 0 16 C0 10.72 0 5.44 0 0 Z " fill="#FFFFFF" transform="translate(384,312)"/>
  <path d="M0 0 C18.48 0 36.96 0 56 0 C56 5.28 56 10.56 56 16 C37.52 16 19.04 16 0 16 C0 10.72 0 5.44 0 0 Z " fill="#FFFFFF" transform="translate(376,384)"/>
  <path d="M0 0 C15.84 0 31.68 0 48 0 C48 5.28 48 10.56 48 16 C32.16 16 16.32 16 0 16 C0 10.72 0 5.44 0 0 Z " fill="#FFFFFF" transform="translate(248,448)"/>
  <path d="M0 0 C15.84 0 31.68 0 48 0 C48 5.28 48 10.56 48 16 C32.16 16 16.32 16 0 16 C0 10.72 0 5.44 0 0 Z " fill="#FFFFFF" transform="translate(48,256)"/>
  <path d="M0 0 C15.84 0 31.68 0 48 0 C48 5.28 48 10.56 48 16 C32.16 16 16.32 16 0 16 C0 10.72 0 5.44 0 0 Z " fill="#FFFFFF" transform="translate(48,192)"/>
  <path d="M0 0 C10.56 0 21.12 0 32 0 C32 5.28 32 10.56 32 16 C21.44 16 10.88 16 0 16 C0 10.72 0 5.44 0 0 Z " fill="#FFFFFF" transform="translate(80,320)"/>
  <path d="M0 0 C10.56 0 21.12 0 32 0 C32 5.28 32 10.56 32 16 C21.44 16 10.88 16 0 16 C0 10.72 0 5.44 0 0 Z " fill="#FFFFFF" transform="translate(80,288)"/>
  <path d="M0 0 C10.56 0 21.12 0 32 0 C32 5.28 32 10.56 32 16 C21.44 16 10.88 16 0 16 C0 10.72 0 5.44 0 0 Z " fill="#FFFFFF" transform="translate(48,224)"/>
  <path d="M0 0 C7.92 0 15.84 0 24 0 C24 5.28 24 10.56 24 16 C16.08 16 8.16 16 0 16 C0 10.72 0 5.44 0 0 Z " fill="#FFFFFF" transform="translate(320,448)"/>
  <path d="M0 0 C2.5 1.5 2.5 1.5 4 4 C4.791013 8.02098277 4.62153384 10.96411027 2.5 14.5 C-1.03588973 16.62153384 -3.97901723 16.791013 -8 16 C-10.5 14.5 -10.5 14.5 -12 12 C-12.791013 7.97901723 -12.62153384 5.03588973 -10.5 1.5 C-6.96411027 -0.62153384 -4.02098277 -0.791013 0 0 Z " fill="#FFFFFF" transform="translate(108,48)"/>
  <path d="M0 0 C2.5 1.5 2.5 1.5 4 4 C4.791013 8.02098277 4.62153384 10.96411027 2.5 14.5 C-1.03588973 16.62153384 -3.97901723 16.791013 -8 16 C-10.5 14.5 -10.5 14.5 -12 12 C-12.791013 7.97901723 -12.62153384 5.03588973 -10.5 1.5 C-6.96411027 -0.62153384 -4.02098277 -0.791013 0 0 Z " fill="#FFFFFF" transform="translate(84,48)"/>
  <path d="M0 0 C2.5 1.5 2.5 1.5 4 4 C4.791013 8.02098277 4.62153384 10.96411027 2.5 14.5 C-1.03588973 16.62153384 -3.97901723 16.791013 -8 16 C-10.5 14.5 -10.5 14.5 -12 12 C-12.791013 7.97901723 -12.62153384 5.03588973 -10.5 1.5 C-6.96411027 -0.62153384 -4.02098277 -0.791013 0 0 Z " fill="#FFFFFF" transform="translate(60,48)"/>
</svg>