<?xml version="1.0" encoding="UTF-8"?>
<svg version="1.1" xmlns="http://www.w3.org/2000/svg" width="512" height="512">
  <path d="M0 0 C1.15921089 -0.00765109 2.31842179 -0.01530219 3.51276028 -0.02318513 C6.7219963 -0.04023309 9.93064654 -0.03938555 13.13989806 -0.03082395 C16.60423957 -0.02588687 20.06847376 -0.04392094 23.53277588 -0.05889893 C30.31656492 -0.08439046 37.10019562 -0.08798065 43.88402449 -0.0832984 C49.3987052 -0.07973135 54.91333788 -0.08323281 60.42801285 -0.09174728 C61.21309272 -0.09293766 61.99817259 -0.09412804 62.80704276 -0.09535449 C64.40197571 -0.09777801 65.99690865 -0.10020628 67.59184159 -0.10263924 C82.54750349 -0.12438951 97.50307518 -0.12006571 112.45874216 -0.10786955 C126.13623993 -0.09753208 139.81345277 -0.12003963 153.49089418 -0.15806599 C167.53946392 -0.19682432 181.58789886 -0.2133345 195.63652241 -0.20581949 C203.52193586 -0.20199548 211.40710684 -0.2069698 219.29247665 -0.23524857 C226.00573204 -0.25908043 232.71859571 -0.26188203 239.4318565 -0.23766823 C242.85584449 -0.22589267 246.27911613 -0.22368313 249.70305634 -0.24767303 C253.41842554 -0.26854806 257.13186846 -0.25245854 260.84716797 -0.22705078 C262.46361877 -0.24917364 262.46361877 -0.24917364 264.11272514 -0.27174342 C270.38758047 -0.18143997 274.13269794 0.83581428 279.01670277 4.84458029 C282.92549385 9.11764896 282.82822743 13.31132589 282.77761841 18.87002563 C282.77791046 19.70941681 282.77820251 20.54880798 282.77850342 21.41363525 C282.77711172 24.18403513 282.76155801 26.95416501 282.74588013 29.72451782 C282.74214943 31.64694064 282.73930273 33.56936537 282.73730469 35.49179077 C282.72967271 40.5487087 282.7100279 45.60551154 282.68789673 50.66238403 C282.66382961 56.73134991 282.65465525 62.8003543 282.64299011 68.86935425 C282.6236033 78.08678046 282.58527765 87.30395419 282.55056763 96.52139282 C298.39056763 96.52139282 314.23056763 96.52139282 330.55056763 96.52139282 C330.39245275 84.85353905 330.39245275 84.85353905 330.19021606 73.18643188 C330.17852987 71.71997237 330.16833788 70.25349987 330.15994263 68.78701782 C330.13947876 68.030177 330.11901489 67.27333618 330.09793091 66.49356079 C330.09556626 62.92057843 330.24123078 60.93088975 332.42654419 58.03799438 C336.46348472 55.15552604 340.81294697 55.93597982 345.55056763 56.52139282 C359.68691788 59.59609449 370.50652981 68.17938336 378.30447388 80.23233032 C387.95694439 97.89223879 387.13818359 117.17587442 387.0734663 136.65516043 C387.06432884 140.7314829 387.0784278 144.80773955 387.08938599 148.88404846 C387.10708113 156.84578708 387.10337252 164.80737403 387.09173542 172.76911835 C387.08266948 179.24174297 387.08149069 185.71432534 387.08583069 192.1869545 C387.08644362 193.11122123 387.08705655 194.03548797 387.08768806 194.98776279 C387.08896706 196.86582868 387.09026391 198.74389455 387.09157842 200.62196042 C387.10295683 218.18970893 387.08991168 235.75737365 387.06837696 253.32510842 C387.05049062 268.38276589 387.05362804 283.44030005 387.072052 298.49795532 C387.09347647 316.01591587 387.10187717 333.53380328 387.08960295 351.0517751 C387.08832883 352.92075863 387.08707135 354.78974218 387.08583069 356.65872574 C387.08521359 357.57814005 387.08459648 358.49755437 387.08396068 359.44482972 C387.08051385 365.90901692 387.08632135 372.37315751 387.0957489 378.83733749 C387.10698702 386.71544486 387.10389005 394.59339288 387.08262593 402.47148208 C387.0721426 406.48713052 387.06794725 410.50251363 387.08122253 414.51815987 C387.09320793 418.1993502 387.08648401 421.88003111 387.06531233 425.56117572 C387.0587814 427.51170474 387.07172668 429.46226958 387.08554125 431.41276062 C386.98235079 443.06985299 384.00784921 451.60953159 376.55056763 460.52139282 C375.68431763 461.78983032 375.68431763 461.78983032 374.80056763 463.08389282 C368.81796759 469.56504286 360.62844013 474.12752409 352.55056763 477.52139282 C351.97839508 477.77131485 351.40622253 478.02123688 350.81671143 478.2787323 C343.70625547 481.04259037 336.8748961 480.90509925 329.32791138 480.81436157 C327.97314426 480.80875442 326.618371 480.80448962 325.26359558 480.80149841 C321.72732237 480.79013748 318.19142889 480.76074803 314.65530396 480.72738647 C311.03515761 480.69649472 307.41494889 480.6829526 303.79470825 480.6678772 C296.71317431 480.63586805 289.63189599 480.58478024 282.55056763 480.52139282 C282.57151489 481.15641724 282.59246216 481.79144165 282.61404419 482.44570923 C282.69761343 485.34577359 282.74935536 488.24558398 282.80056763 491.14639282 C282.83408325 492.14541626 282.86759888 493.1444397 282.90213013 494.17373657 C282.9807564 500.11002003 282.84691324 504.01715952 278.55056763 508.52139282 C272.44504732 512.95079994 267.42675899 513.09485879 260.0188446 513.04278564 C258.86286284 513.05043674 257.70688107 513.05808783 256.51586956 513.06597078 C253.32029312 513.08299905 250.12530636 513.08217876 246.92971456 513.07360959 C243.47834235 513.06866721 240.02707735 513.08671305 236.57574463 513.10168457 C229.81949808 513.12716044 223.06341058 513.13076832 216.30712409 513.12608404 C210.81487379 513.12251559 205.32267171 513.12602147 199.83042717 513.13453293 C199.04825815 513.13572331 198.26608913 513.13691368 197.46021802 513.13814013 C195.8711636 513.14056367 194.28210919 513.14299194 192.69305479 513.14542489 C177.79699997 513.16716869 162.90103575 513.16285415 148.00497585 513.1506552 C134.3825067 513.14031577 120.76032354 513.16283156 107.13791097 513.20085163 C93.14355007 513.23960983 79.14932447 513.25612033 65.15490955 513.24860513 C57.30080975 513.24478143 49.4469534 513.24975268 41.59289742 513.27803421 C34.9071141 513.30186575 28.2217241 513.30466788 21.53593535 513.28045388 C18.12611621 513.26867868 14.7170164 513.26646783 11.30724525 513.29045868 C7.60725356 513.31133446 3.90919601 513.2952437 0.20927429 513.26983643 C-0.86378651 513.284585 -1.9368473 513.29933357 -3.0424251 513.31452906 C-9.30570099 513.22402173 -13.03858316 512.19729135 -17.91399628 508.19820535 C-21.05984129 504.76270429 -21.69802324 501.9002073 -21.64474487 497.31826782 C-21.63829956 496.33858032 -21.63185425 495.35889282 -21.62521362 494.34951782 C-21.60845581 493.33373657 -21.591698 492.31795532 -21.57443237 491.27139282 C-21.56540894 490.24014282 -21.5563855 489.20889282 -21.54708862 488.14639282 C-21.52355249 485.60448995 -21.4906726 483.06306002 -21.44943237 480.52139282 C-22.18255646 480.53249588 -22.91568054 480.54359894 -23.67102051 480.55503845 C-30.64202384 480.65598591 -37.6127663 480.73173078 -44.58429909 480.78045368 C-48.16694404 480.80634669 -51.74897602 480.84136168 -55.33126831 480.89859009 C-58.80025463 480.95365 -62.26865838 480.98296511 -65.73804855 480.99577904 C-67.67985027 481.00926673 -69.62142349 481.04817647 -71.56286621 481.08787537 C-87.66285883 481.09285832 -101.72626377 474.53046781 -113.41427612 463.64639282 C-123.37267532 453.2483714 -126.0562203 441.56340003 -125.95736694 427.51243591 C-125.96198476 426.12428104 -125.96834355 424.73613106 -125.97627592 423.34799117 C-125.99287283 419.56126826 -125.98476719 415.77495199 -125.97233105 411.9882282 C-125.96324262 407.89329896 -125.97726929 403.79843733 -125.98825073 399.70352173 C-126.00600262 391.6911564 -126.00221016 383.67894128 -125.99060017 375.66657016 C-125.98154983 369.14950869 -125.98034877 362.63248917 -125.98469543 356.1154232 C-125.98561483 354.72164303 -125.98561483 354.72164303 -125.9865528 353.29970568 C-125.98783178 351.41174524 -125.98912863 349.52378482 -125.99044317 347.6358244 C-126.00184004 329.94586659 -125.98875094 312.25599177 -125.9672417 294.56604757 C-125.9493863 279.41269329 -125.95246371 264.25946166 -125.97091675 249.10610962 C-125.99236475 231.48523288 -126.00072598 213.86442892 -125.98846769 196.24354094 C-125.98719359 194.3611744 -125.9859361 192.47880784 -125.98469543 190.59644127 C-125.98407833 189.67043237 -125.98346123 188.74442347 -125.98282543 187.79035369 C-125.9793832 181.28951186 -125.98517679 174.78871648 -125.99461365 168.28788185 C-126.00587942 160.35304591 -126.00269859 152.41836808 -125.98149067 144.48355005 C-125.97103918 140.44099613 -125.96675624 136.39870496 -125.98008728 132.35615349 C-126.11355611 88.0793348 -126.11355611 88.0793348 -110.44943237 70.52139282 C-109.78943237 70.52139282 -109.12943237 70.52139282 -108.44943237 70.52139282 C-108.44943237 69.86139282 -108.44943237 69.20139282 -108.44943237 68.52139282 C-99.33578583 60.35408429 -88.1763662 55.97149721 -76.00802612 55.95498657 C-72.58017363 56.71382415 -71.56056601 57.71198453 -69.44943237 60.52139282 C-69.10074112 63.40765655 -68.98102133 65.91015922 -69.05880737 68.78701782 C-69.06283569 69.49068481 -69.06686401 70.19435181 -69.0710144 70.91934204 C-69.09187416 73.5369592 -69.14772011 76.15420338 -69.19943237 78.77139282 C-69.28193237 84.62889282 -69.36443237 90.48639282 -69.44943237 96.52139282 C-53.60943237 96.52139282 -37.76943237 96.52139282 -21.44943237 96.52139282 C-21.49583862 90.3828772 -21.54224487 84.24436157 -21.59005737 77.91983032 C-21.61049874 74.0278863 -21.6297547 70.13600858 -21.64474487 66.24404907 C-21.66864407 60.06829052 -21.69689833 53.8927695 -21.75119019 47.7171936 C-21.79469361 42.7375389 -21.81857919 37.75813896 -21.82894135 32.77830887 C-21.83632462 30.87970597 -21.85074251 28.9811168 -21.8723526 27.08262253 C-21.90144646 24.4204688 -21.90538589 21.75936389 -21.90353394 19.09707642 C-21.91791504 18.31448456 -21.93229614 17.5318927 -21.94711304 16.72558594 C-21.90819588 11.54575492 -20.95016081 8.57021694 -17.44943237 4.52139282 C-11.99569815 -0.27272 -7.05693139 -0.04929405 0 0 Z M-5.44943237 16.52139282 C-5.44943237 35.00139282 -5.44943237 53.48139282 -5.44943237 72.52139282 C84.31056763 72.52139282 174.07056763 72.52139282 266.55056763 72.52139282 C266.55056763 54.04139282 266.55056763 35.56139282 266.55056763 16.52139282 C176.79056763 16.52139282 87.03056763 16.52139282 -5.44943237 16.52139282 Z M346.55056763 74.52139282 C346.55056763 177.15139282 346.55056763 279.78139282 346.55056763 385.52139282 C351.83056763 388.16139282 357.11056763 390.80139282 362.55056763 393.52139282 C365.24709165 395.13930724 367.93405203 396.77704909 370.55056763 398.52139282 C370.59642781 363.41223362 370.63162874 328.30308051 370.65269829 293.19389761 C370.65519945 289.04118112 370.65778812 284.88846469 370.66043091 280.73574829 C370.66121784 279.49574431 370.66121784 279.49574431 370.66202067 278.23068975 C370.67070375 264.87653053 370.68646208 251.52238867 370.70487322 238.16823973 C370.72363079 224.44754332 370.73469669 210.72685596 370.73874462 197.00614727 C370.74147757 188.55186232 370.75008334 180.09762648 370.76640056 171.64335667 C370.77703989 165.83197098 370.78015268 160.02061036 370.77757038 154.20921566 C370.77629979 150.86524326 370.77925532 147.52142432 370.78897858 144.1774559 C371.8596216 110.06759058 371.8596216 110.06759058 357.12478638 80.60733032 C353.88628239 77.82983978 353.88628239 77.82983978 346.55056763 74.52139282 Z M-98.13693237 82.64639282 C-109.28243866 94.35171906 -109.61079724 112.17654743 -109.56968689 127.34745789 C-109.57054131 128.51079303 -109.57139574 129.67412817 -109.57227606 130.87271589 C-109.57363193 134.07904239 -109.57053127 137.28532785 -109.56549799 140.49164951 C-109.56116064 143.95778133 -109.56264224 147.4239114 -109.56340027 150.89004517 C-109.56392343 156.88783783 -109.56079839 162.88561958 -109.55516243 168.8834095 C-109.5470192 177.55509857 -109.54442932 186.22678239 -109.54317444 194.89847486 C-109.54098835 208.96931704 -109.53434029 223.04015341 -109.52487183 237.11099243 C-109.51568624 250.77570568 -109.50861101 264.44041734 -109.50436401 278.10513306 C-109.50410129 278.94808829 -109.50383857 279.79104353 -109.50356788 280.65954287 C-109.5022628 284.88859931 -109.5009991 289.11765577 -109.49975598 293.34671223 C-109.48939717 328.40494324 -109.47179092 363.46316749 -109.44943237 398.52139282 C-108.80619019 398.0856897 -108.162948 397.64998657 -107.50021362 397.20108032 C-106.59658081 396.60553345 -105.692948 396.00998657 -104.76193237 395.39639282 C-103.89181519 394.8163147 -103.021698 394.23623657 -102.12521362 393.63858032 C-96.76814893 390.55300215 -91.06257026 388.11207185 -85.44943237 385.52139282 C-85.44943237 282.89139282 -85.44943237 180.26139282 -85.44943237 74.52139282 C-89.67448672 74.52139282 -95.17578845 79.94556925 -98.13693237 82.64639282 Z M-5.44943237 88.52139282 C-5.44943237 107.00139282 -5.44943237 125.48139282 -5.44943237 144.52139282 C-1.59370406 142.9791015 1.40620092 141.50867389 4.88259888 139.35342407 C6.43261597 138.39617432 6.43261597 138.39617432 8.01394653 137.41958618 C9.11915649 136.73130737 10.22436646 136.04302856 11.36306763 135.33389282 C12.52874092 134.61167908 13.6945967 133.88975979 14.86062622 133.16812134 C18.42762822 130.9584538 21.98958837 128.74074929 25.55056763 126.52139282 C26.5993811 125.8681604 27.64819458 125.21492798 28.72879028 124.54190063 C34.66628908 120.84137342 40.5971932 117.13040269 46.52566528 113.41543579 C49.68208839 111.43904108 52.84063747 109.46608355 55.99978638 107.49404907 C57.0650354 106.82897339 58.13028442 106.16389771 59.22781372 105.47866821 C61.24229151 104.22107061 63.25692667 102.96372502 65.27175903 101.70669556 C68.03354614 99.98172314 70.79216644 98.25177313 73.55056763 96.52139282 C74.58745728 95.87557251 75.62434692 95.2297522 76.69265747 94.56436157 C78.20593628 93.61496704 78.20593628 93.61496704 79.74978638 92.64639282 C80.66977417 92.07147095 81.58976196 91.49654907 82.53762817 90.90420532 C83.20189819 90.4478772 83.86616821 89.99154907 84.55056763 89.52139282 C84.55056763 89.19139282 84.55056763 88.86139282 84.55056763 88.52139282 C54.85056763 88.52139282 25.15056763 88.52139282 -5.44943237 88.52139282 Z M122.55056763 88.52139282 C122.55056763 202.04139282 122.55056763 315.56139282 122.55056763 432.52139282 C170.07056763 432.52139282 217.59056763 432.52139282 266.55056763 432.52139282 C266.55056763 319.00139282 266.55056763 205.48139282 266.55056763 88.52139282 C219.03056763 88.52139282 171.51056763 88.52139282 122.55056763 88.52139282 Z M98.48806763 100.08389282 C82.91401979 110.23768412 67.07928816 119.97925429 51.23806763 129.70889282 C43.34738034 134.55881883 35.4611401 139.41521843 27.61306763 144.33389282 C26.44167236 145.06225342 26.44167236 145.06225342 25.24661255 145.80532837 C24.17697266 146.47882324 24.17697266 146.47882324 23.08572388 147.16592407 C22.47092163 147.55111206 21.85611938 147.93630005 21.22268677 148.3331604 C19.21592146 149.68923859 19.21592146 149.68923859 16.55056763 152.52139282 C46.25056763 152.52139282 75.95056763 152.52139282 106.55056763 152.52139282 C106.55056763 133.71139282 106.55056763 114.90139282 106.55056763 95.52139282 C103.95570968 95.52139282 100.68251528 98.64108767 98.48806763 100.08389282 Z M-69.44943237 112.52139282 C-69.77943237 206.90139282 -70.10943237 301.28139282 -70.44943237 398.52139282 C-73.74943237 399.51139282 -77.04943237 400.50139282 -80.44943237 401.52139282 C-93.32017777 405.99018909 -102.26903415 412.16059638 -108.44943237 424.52139282 C-109.23821008 435.09877256 -108.38246128 441.62184946 -102.44943237 450.52139282 C-101.78943237 450.52139282 -101.12943237 450.52139282 -100.44943237 450.52139282 C-100.44943237 451.18139282 -100.44943237 451.84139282 -100.44943237 452.52139282 C-98.16395878 454.4483669 -98.16395878 454.4483669 -95.19943237 456.39639282 C-93.7376355 457.41346313 -93.7376355 457.41346313 -92.24630737 458.45108032 C-69.65094175 470.77159862 -49.01073837 464.52139282 -21.44943237 464.52139282 C-21.44943237 348.36139282 -21.44943237 232.20139282 -21.44943237 112.52139282 C-37.28943237 112.52139282 -53.12943237 112.52139282 -69.44943237 112.52139282 Z M282.55056763 112.52139282 C282.55056763 228.68139282 282.55056763 344.84139282 282.55056763 464.52139282 C326.63461575 467.9807428 326.63461575 467.9807428 362.36306763 451.02139282 C368.52796426 443.97579667 369.8506924 438.91669557 369.76931763 429.75186157 C369.4832249 425.52688506 368.6455719 423.1876503 366.55056763 419.52139282 C365.77713013 418.03639282 365.77713013 418.03639282 364.98806763 416.52139282 C357.47299795 407.27207629 346.07185768 402.80694 334.99197388 399.45108032 C332.55056763 398.52139282 332.55056763 398.52139282 331.55056763 396.52139282 C331.45223101 394.96333228 331.41671656 393.40111719 331.41190243 391.83996391 C331.40642798 390.84669747 331.40095354 389.85343103 331.3953132 388.83006561 C331.3943351 387.73086197 331.39335699 386.63165834 331.39234924 385.49914551 C331.38494228 383.75698893 331.38494228 383.75698893 331.37738568 381.97963727 C331.36464301 378.7461071 331.35637687 375.5126003 331.34995902 372.2790525 C331.34196927 368.79574324 331.32826661 365.31245603 331.31524658 361.8291626 C331.29346356 355.79087894 331.27532577 349.75259308 331.25964165 343.71429062 C331.23695962 334.98384608 331.2088145 326.25342592 331.17932237 317.52300204 C331.13162599 303.35955322 331.08836736 289.19609443 331.04788208 275.03262329 C331.00853756 261.2715477 330.96711384 247.51048096 330.92288208 233.74942017 C330.92015781 232.90163887 330.91743354 232.05385757 330.91462671 231.18038593 C330.9009474 226.92745085 330.8872271 222.67451591 330.8734864 218.42158103 C330.75948948 183.12153647 330.65295992 147.82147283 330.55056763 112.52139282 C314.71056763 112.52139282 298.87056763 112.52139282 282.55056763 112.52139282 Z M-5.44943237 168.52139282 C-5.44943237 184.36139282 -5.44943237 200.20139282 -5.44943237 216.52139282 C31.51056763 216.52139282 68.47056763 216.52139282 106.55056763 216.52139282 C106.55056763 200.68139282 106.55056763 184.84139282 106.55056763 168.52139282 C69.59056763 168.52139282 32.63056763 168.52139282 -5.44943237 168.52139282 Z M-5.44943237 232.52139282 C-5.44943237 248.36139282 -5.44943237 264.20139282 -5.44943237 280.52139282 C31.51056763 280.52139282 68.47056763 280.52139282 106.55056763 280.52139282 C106.55056763 264.68139282 106.55056763 248.84139282 106.55056763 232.52139282 C69.59056763 232.52139282 32.63056763 232.52139282 -5.44943237 232.52139282 Z M-5.44943237 296.52139282 C-5.44943237 312.36139282 -5.44943237 328.20139282 -5.44943237 344.52139282 C31.51056763 344.52139282 68.47056763 344.52139282 106.55056763 344.52139282 C106.55056763 328.68139282 106.55056763 312.84139282 106.55056763 296.52139282 C69.59056763 296.52139282 32.63056763 296.52139282 -5.44943237 296.52139282 Z M-5.44943237 360.52139282 C-5.44943237 381.64139282 -5.44943237 402.76139282 -5.44943237 424.52139282 C1.42383444 420.14749576 8.22530926 415.76606696 14.92556763 411.14639282 C15.75153442 410.57896362 16.57750122 410.01153442 17.42849731 409.4269104 C19.80402503 407.79390874 22.17767261 406.15821686 24.55056763 404.52139282 C25.13032349 404.12194458 25.71007935 403.72249634 26.30740356 403.3109436 C31.78014196 399.53872487 37.23548136 395.74173199 42.68728638 391.93936157 C44.62082832 390.59163099 46.55442386 389.2439773 48.48806763 387.89639282 C49.46396851 387.21568726 50.43986938 386.53498169 51.44534302 385.83364868 C56.53732024 382.28864327 61.64471497 378.76957252 66.78494263 375.29483032 C67.78404663 374.61887817 68.78315063 373.94292603 69.81253052 373.24649048 C71.72051694 371.95836479 73.63104947 370.67400001 75.54446411 369.39395142 C76.40628296 368.81210083 77.26810181 368.23025024 78.15603638 367.63076782 C78.91037964 367.12513306 79.6647229 366.61949829 80.44192505 366.09854126 C82.99523274 364.26702714 82.99523274 364.26702714 86.55056763 360.52139282 C56.19056763 360.52139282 25.83056763 360.52139282 -5.44943237 360.52139282 Z M98.48806763 373.52139282 C91.27127271 378.66999803 83.94242088 383.62801289 76.55056763 388.52139282 C68.09511369 394.12454825 59.74659352 399.84543613 51.48416138 405.72842407 C47.55142728 408.52834389 43.59017276 411.28492898 39.61306763 414.02139282 C38.9730481 414.46184937 38.33302856 414.90230591 37.6736145 415.35610962 C33.98540567 417.88326664 30.27504054 420.37417547 26.54666138 422.84170532 C25.71449097 423.39277954 24.88232056 423.94385376 24.02493286 424.5116272 C22.39778614 425.58665181 20.76844699 426.6583666 19.13674927 427.72647095 C18.40705933 428.20793579 17.67736938 428.68940063 16.92556763 429.18545532 C16.273302 429.61294067 15.62103638 430.04042603 14.94900513 430.48086548 C14.48752075 430.8242395 14.02603638 431.16761353 13.55056763 431.52139282 C13.55056763 431.85139282 13.55056763 432.18139282 13.55056763 432.52139282 C44.24056763 432.52139282 74.93056763 432.52139282 106.55056763 432.52139282 C106.55056763 411.40139282 106.55056763 390.28139282 106.55056763 368.52139282 C103.96586184 368.52139282 100.61918595 371.98838128 98.48806763 373.52139282 Z M-5.44943237 448.52139282 C-5.44943237 464.36139282 -5.44943237 480.20139282 -5.44943237 496.52139282 C84.31056763 496.52139282 174.07056763 496.52139282 266.55056763 496.52139282 C266.55056763 480.68139282 266.55056763 464.84139282 266.55056763 448.52139282 C176.79056763 448.52139282 87.03056763 448.52139282 -5.44943237 448.52139282 Z " fill="#FFFFFF" transform="translate(125.44943237304688,-0.521392822265625)"/>
  <path d="M0 0 C0.85247314 -0.00700928 1.70494629 -0.01401855 2.58325195 -0.02124023 C5.3995832 -0.03883756 8.21490864 -0.02719147 11.03125 -0.01367188 C12.98893425 -0.01636629 14.9466172 -0.02024829 16.90429688 -0.02526855 C21.00664007 -0.03116595 25.10863482 -0.02259281 29.2109375 -0.00390625 C34.47045628 0.01888337 39.72915864 0.00576159 44.98864746 -0.01819611 C49.0309871 -0.03264751 53.07313305 -0.0280511 57.11547852 -0.01768494 C59.05476986 -0.01501583 60.99407877 -0.01829385 62.93334961 -0.02760315 C65.6435405 -0.03775789 68.35240775 -0.02228315 71.0625 0 C71.86469971 -0.00809692 72.66689941 -0.01619385 73.4934082 -0.02453613 C76.83059518 0.02631901 79.14515119 0.28516382 82.02819824 2.02062988 C84.17992939 5.59519827 84.08972046 8.93493567 84.04882812 12.98632812 C84.0558374 13.83880127 84.06284668 14.69127441 84.07006836 15.56958008 C84.08766568 18.38591132 84.0760196 21.20123676 84.0625 24.01757812 C84.06519442 25.97526238 84.06907642 27.93294533 84.07409668 29.890625 C84.07999408 33.99296819 84.07142093 38.09496294 84.05273438 42.19726562 C84.02994475 47.45678441 84.04306653 52.71548676 84.06702423 57.97497559 C84.08147563 62.01731523 84.07687923 66.05946118 84.06651306 70.10180664 C84.06384396 72.04109799 84.06712197 73.9804069 84.07643127 75.91967773 C84.08658602 78.62986863 84.07111128 81.33873587 84.04882812 84.04882812 C84.05692505 84.85102783 84.06502197 85.65322754 84.07336426 86.47973633 C84.02250912 89.81692331 83.76366431 92.13147931 82.02819824 95.01452637 C78.45362985 97.16625751 75.11389246 97.07604858 71.0625 97.03515625 C70.21002686 97.04216553 69.35755371 97.0491748 68.47924805 97.05639648 C65.6629168 97.07399381 62.84759136 97.06234772 60.03125 97.04882812 C58.07356575 97.05152254 56.1158828 97.05540454 54.15820312 97.0604248 C50.05585993 97.0663222 45.95386518 97.05774906 41.8515625 97.0390625 C36.59204372 97.01627288 31.33334136 97.02939466 26.07385254 97.05335236 C22.0315129 97.06780376 17.98936695 97.06320735 13.94702148 97.05284119 C12.00773014 97.05017208 10.06842123 97.0534501 8.12915039 97.0627594 C5.4189595 97.07291414 2.71009225 97.0574394 0 97.03515625 C-1.20329956 97.04730164 -1.20329956 97.04730164 -2.4309082 97.05969238 C-5.76809518 97.00883724 -8.08265119 96.74999243 -10.96569824 95.01452637 C-13.11742939 91.43995798 -13.02722046 88.10022058 -12.98632812 84.04882812 C-12.9933374 83.19635498 -13.00034668 82.34388184 -13.00756836 81.46557617 C-13.02516568 78.64924493 -13.0135196 75.83391949 -13 73.01757812 C-13.00269442 71.05989387 -13.00657642 69.10221092 -13.01159668 67.14453125 C-13.01749408 63.04218806 -13.00892093 58.94019331 -12.99023438 54.83789062 C-12.96744475 49.57837184 -12.98056653 44.31966949 -13.00452423 39.06018066 C-13.01897563 35.01784102 -13.01437923 30.97569507 -13.00401306 26.93334961 C-13.00134396 24.99405826 -13.00462197 23.05474935 -13.01393127 21.11547852 C-13.02408602 18.40528762 -13.00861128 15.69642038 -12.98632812 12.98632812 C-12.99442505 12.18412842 -13.00252197 11.38192871 -13.01086426 10.55541992 C-12.96000912 7.21823294 -12.70116431 4.90367694 -10.96569824 2.02062988 C-7.39112985 -0.13110126 -4.05139246 -0.04089233 0 0 Z M15.53125 16.51757812 C19.09852783 20.67940226 22.48718094 24.59900202 26.32739258 28.44311523 C27.22464554 29.34352036 28.1218985 30.24392548 29.04634094 31.1716156 C30.00602646 32.12951253 30.9658429 33.08727832 31.92578125 34.04492188 C32.92386718 35.04368258 33.92180473 36.04259159 34.91960144 37.04164124 C36.99645896 39.11996349 39.07509072 41.19648985 41.1550293 43.27172852 C43.82622003 45.93717784 46.49283593 48.60715219 49.15817738 51.27844906 C51.21090301 53.33477551 53.26598846 55.38873017 55.32181358 57.44195747 C56.30698816 58.42646375 57.29141708 59.41171675 58.27509499 60.39771843 C59.64167808 61.76682494 61.01178685 63.13240959 62.38208008 64.49780273 C63.1611824 65.27610947 63.94028473 66.0544162 64.74299622 66.85630798 C66.2465511 68.63101409 66.2465511 68.63101409 67.53125 68.51757812 C67.53125 51.35757813 67.53125 34.19757813 67.53125 16.51757812 C50.37125 16.51757812 33.21125 16.51757812 15.53125 16.51757812 Z M3.53125 28.51757812 C3.53125 45.67757812 3.53125 62.83757812 3.53125 80.51757812 C20.69125 80.51757812 37.85125 80.51757812 55.53125 80.51757812 C51.96397217 76.35575399 48.57531906 72.43615423 44.73510742 68.59204102 C43.83785446 67.69163589 42.9406015 66.79123077 42.01615906 65.86354065 C41.05647354 64.90564372 40.0966571 63.94787793 39.13671875 62.99023438 C38.13863282 61.99147367 37.14069527 60.99256466 36.14289856 59.99351501 C34.06604104 57.91519276 31.98740928 55.8386664 29.9074707 53.76342773 C27.23627997 51.09797841 24.56966407 48.42800406 21.90432262 45.75670719 C19.85159699 43.70038074 17.79651154 41.64642608 15.74068642 39.59319878 C14.75551184 38.6086925 13.77108292 37.6234395 12.78740501 36.63743782 C11.42082192 35.26833131 10.05071315 33.90274666 8.68041992 32.53735352 C7.9013176 31.75904678 7.12221527 30.98074005 6.31950378 30.17884827 C4.8159489 28.40414216 4.8159489 28.40414216 3.53125 28.51757812 Z " fill="#FFFFFF" transform="translate(284.46875,215.482421875)"/>
  <path d="M0 0 C0.85247314 -0.00700928 1.70494629 -0.01401855 2.58325195 -0.02124023 C5.3995832 -0.03883756 8.21490864 -0.02719147 11.03125 -0.01367188 C12.98893425 -0.01636629 14.9466172 -0.02024829 16.90429688 -0.02526855 C21.00664007 -0.03116595 25.10863482 -0.02259281 29.2109375 -0.00390625 C34.47045628 0.01888337 39.72915864 0.00576159 44.98864746 -0.01819611 C49.0309871 -0.03264751 53.07313305 -0.0280511 57.11547852 -0.01768494 C59.05476986 -0.01501583 60.99407877 -0.01829385 62.93334961 -0.02760315 C65.6435405 -0.03775789 68.35240775 -0.02228315 71.0625 0 C71.86469971 -0.00809692 72.66689941 -0.01619385 73.4934082 -0.02453613 C76.83059518 0.02631901 79.14515119 0.28516382 82.02819824 2.02062988 C84.17992939 5.59519827 84.08972046 8.93493567 84.04882812 12.98632812 C84.0558374 13.83880127 84.06284668 14.69127441 84.07006836 15.56958008 C84.08766568 18.38591132 84.0760196 21.20123676 84.0625 24.01757812 C84.06519442 25.97526238 84.06907642 27.93294533 84.07409668 29.890625 C84.07999408 33.99296819 84.07142093 38.09496294 84.05273438 42.19726562 C84.02994475 47.45678441 84.04306653 52.71548676 84.06702423 57.97497559 C84.08147563 62.01731523 84.07687923 66.05946118 84.06651306 70.10180664 C84.06384396 72.04109799 84.06712197 73.9804069 84.07643127 75.91967773 C84.08658602 78.62986863 84.07111128 81.33873587 84.04882812 84.04882812 C84.05692505 84.85102783 84.06502197 85.65322754 84.07336426 86.47973633 C84.02250912 89.81692331 83.76366431 92.13147931 82.02819824 95.01452637 C78.45362985 97.16625751 75.11389246 97.07604858 71.0625 97.03515625 C70.21002686 97.04216553 69.35755371 97.0491748 68.47924805 97.05639648 C65.6629168 97.07399381 62.84759136 97.06234772 60.03125 97.04882812 C58.07356575 97.05152254 56.1158828 97.05540454 54.15820312 97.0604248 C50.05585993 97.0663222 45.95386518 97.05774906 41.8515625 97.0390625 C36.59204372 97.01627288 31.33334136 97.02939466 26.07385254 97.05335236 C22.0315129 97.06780376 17.98936695 97.06320735 13.94702148 97.05284119 C12.00773014 97.05017208 10.06842123 97.0534501 8.12915039 97.0627594 C5.4189595 97.07291414 2.71009225 97.0574394 0 97.03515625 C-1.20329956 97.04730164 -1.20329956 97.04730164 -2.4309082 97.05969238 C-5.76809518 97.00883724 -8.08265119 96.74999243 -10.96569824 95.01452637 C-13.11742939 91.43995798 -13.02722046 88.10022058 -12.98632812 84.04882812 C-12.9933374 83.19635498 -13.00034668 82.34388184 -13.00756836 81.46557617 C-13.02516568 78.64924493 -13.0135196 75.83391949 -13 73.01757812 C-13.00269442 71.05989387 -13.00657642 69.10221092 -13.01159668 67.14453125 C-13.01749408 63.04218806 -13.00892093 58.94019331 -12.99023438 54.83789062 C-12.96744475 49.57837184 -12.98056653 44.31966949 -13.00452423 39.06018066 C-13.01897563 35.01784102 -13.01437923 30.97569507 -13.00401306 26.93334961 C-13.00134396 24.99405826 -13.00462197 23.05474935 -13.01393127 21.11547852 C-13.02408602 18.40528762 -13.00861128 15.69642038 -12.98632812 12.98632812 C-12.99442505 12.18412842 -13.00252197 11.38192871 -13.01086426 10.55541992 C-12.96000912 7.21823294 -12.70116431 4.90367694 -10.96569824 2.02062988 C-7.39112985 -0.13110126 -4.05139246 -0.04089233 0 0 Z M15.53125 16.51757812 C19.09852783 20.67940226 22.48718094 24.59900202 26.32739258 28.44311523 C27.22464554 29.34352036 28.1218985 30.24392548 29.04634094 31.1716156 C30.00602646 32.12951253 30.9658429 33.08727832 31.92578125 34.04492188 C32.92386718 35.04368258 33.92180473 36.04259159 34.91960144 37.04164124 C36.99645896 39.11996349 39.07509072 41.19648985 41.1550293 43.27172852 C43.82622003 45.93717784 46.49283593 48.60715219 49.15817738 51.27844906 C51.21090301 53.33477551 53.26598846 55.38873017 55.32181358 57.44195747 C56.30698816 58.42646375 57.29141708 59.41171675 58.27509499 60.39771843 C59.64167808 61.76682494 61.01178685 63.13240959 62.38208008 64.49780273 C63.1611824 65.27610947 63.94028473 66.0544162 64.74299622 66.85630798 C66.2465511 68.63101409 66.2465511 68.63101409 67.53125 68.51757812 C67.53125 51.35757813 67.53125 34.19757813 67.53125 16.51757812 C50.37125 16.51757812 33.21125 16.51757812 15.53125 16.51757812 Z M3.53125 28.51757812 C3.53125 45.67757812 3.53125 62.83757812 3.53125 80.51757812 C20.69125 80.51757812 37.85125 80.51757812 55.53125 80.51757812 C51.96397217 76.35575399 48.57531906 72.43615423 44.73510742 68.59204102 C43.83785446 67.69163589 42.9406015 66.79123077 42.01615906 65.86354065 C41.05647354 64.90564372 40.0966571 63.94787793 39.13671875 62.99023438 C38.13863282 61.99147367 37.14069527 60.99256466 36.14289856 59.99351501 C34.06604104 57.91519276 31.98740928 55.8386664 29.9074707 53.76342773 C27.23627997 51.09797841 24.56966407 48.42800406 21.90432262 45.75670719 C19.85159699 43.70038074 17.79651154 41.64642608 15.74068642 39.59319878 C14.75551184 38.6086925 13.77108292 37.6234395 12.78740501 36.63743782 C11.42082192 35.26833131 10.05071315 33.90274666 8.68041992 32.53735352 C7.9013176 31.75904678 7.12221527 30.98074005 6.31950378 30.17884827 C4.8159489 28.40414216 4.8159489 28.40414216 3.53125 28.51757812 Z " fill="#FFFFFF" transform="translate(284.46875,103.482421875)"/>
  <path d="M0 0 C31.68 0 63.36 0 96 0 C96 5.28 96 10.56 96 16 C64.32 16 32.64 16 0 16 C0 10.72 0 5.44 0 0 Z " fill="#FFFFFF" transform="translate(272,392)"/>
  <path d="M0 0 C31.68 0 63.36 0 96 0 C96 5.28 96 10.56 96 16 C64.32 16 32.64 16 0 16 C0 10.72 0 5.44 0 0 Z " fill="#FFFFFF" transform="translate(272,360)"/>
  <path d="M0 0 C26.4 0 52.8 0 80 0 C80 5.28 80 10.56 80 16 C53.6 16 27.2 16 0 16 C0 10.72 0 5.44 0 0 Z " fill="#FFFFFF" transform="translate(136,312)"/>
  <path d="M0 0 C26.4 0 52.8 0 80 0 C80 5.28 80 10.56 80 16 C53.6 16 27.2 16 0 16 C0 10.72 0 5.44 0 0 Z " fill="#FFFFFF" transform="translate(136,248)"/>
  <path d="M0 0 C26.4 0 52.8 0 80 0 C80 5.28 80 10.56 80 16 C53.6 16 27.2 16 0 16 C0 10.72 0 5.44 0 0 Z " fill="#FFFFFF" transform="translate(136,184)"/>
  <path d="M0 0 C21.12 0 42.24 0 64 0 C64 5.28 64 10.56 64 16 C42.88 16 21.76 16 0 16 C0 10.72 0 5.44 0 0 Z " fill="#FFFFFF" transform="translate(272,328)"/>
  <path d="M0 0 C21.12 0 42.24 0 64 0 C64 5.28 64 10.56 64 16 C42.88 16 21.76 16 0 16 C0 10.72 0 5.44 0 0 Z " fill="#FFFFFF" transform="translate(200,40)"/>
  <path d="M0 0 C5.28 0 10.56 0 16 0 C16 5.28 16 10.56 16 16 C10.72 16 5.44 16 0 16 C0 10.72 0 5.44 0 0 Z " fill="#FFFFFF" transform="translate(352,328)"/>
  <path d="M0 0 C5.28 0 10.56 0 16 0 C16 5.28 16 10.56 16 16 C10.72 16 5.44 16 0 16 C0 10.72 0 5.44 0 0 Z " fill="#FFFFFF" transform="translate(312,40)"/>
  <path d="M0 0 C5.28 0 10.56 0 16 0 C16 5.28 16 10.56 16 16 C10.72 16 5.44 16 0 16 C0 10.72 0 5.44 0 0 Z " fill="#FFFFFF" transform="translate(280,40)"/>
</svg>