<?xml version="1.0" encoding="UTF-8"?>
<svg version="1.1" xmlns="http://www.w3.org/2000/svg" width="512" height="512">
  <path d="M0 0 C1.19308273 -0.00860046 2.38616547 -0.01720093 3.61540222 -0.02606201 C5.57375504 -0.03245193 5.57375504 -0.03245193 7.57167053 -0.03897095 C8.963147 -0.04687613 10.35462144 -0.05514534 11.74609375 -0.06375122 C16.31041013 -0.08991242 20.87473544 -0.10526804 25.43910217 -0.11953735 C27.01154142 -0.12489853 28.58398062 -0.13027605 30.15641975 -0.13566971 C36.69584706 -0.15728538 43.23527195 -0.17602343 49.77472591 -0.1872921 C59.14344198 -0.20354385 68.51174421 -0.2367659 77.88030428 -0.29369295 C84.47064216 -0.33237365 91.06086923 -0.35192225 97.65131766 -0.35721266 C101.58691611 -0.36086732 105.52207259 -0.37290087 109.45754814 -0.4053154 C113.1586997 -0.4353655 116.85914107 -0.44171942 120.56038857 -0.42993164 C122.56452196 -0.42960538 124.56861134 -0.45408871 126.57258606 -0.47930908 C136.36528188 -0.41119286 136.36528188 -0.41119286 139.46646118 2.53411865 C141.29206565 5.35526687 141.83885311 6.81984034 141.78675842 10.15390015 C141.79964905 10.97890015 141.81253967 11.80390015 141.82582092 12.65390015 C141.09621477 15.4006527 140.09647924 17.12467171 138.03128815 19.08784103 C133.70703724 21.5536521 128.2649667 20.81847361 123.43617249 20.76571655 C122.14292053 20.77138138 120.84966858 20.7770462 119.51722717 20.78288269 C116.70859014 20.79504726 113.90056087 20.79161196 111.09194183 20.77605057 C106.64464272 20.75169079 102.19787331 20.76324742 97.75056458 20.77972412 C89.90887569 20.80421024 82.06742827 20.79842512 74.22572327 20.78591919 C62.43566146 20.76734398 50.64564728 20.77228733 38.85561919 20.80595338 C34.4415404 20.8174216 30.02784971 20.81309027 25.6137929 20.79593301 C23.52418922 20.78991189 21.43471553 20.79066836 19.34510803 20.79432678 C16.80666951 20.79854401 14.26818017 20.79216501 11.72981262 20.77272034 C4.10387812 20.80848767 -3.42975381 21.00760374 -9.27574158 26.40390015 C-12.55636203 32.17779214 -13.13364586 37.94941614 -13.11671448 44.4745636 C-13.12250015 45.28306259 -13.12828583 46.09156158 -13.13424683 46.92456055 C-13.15120345 49.6272684 -13.15410878 52.32980551 -13.15708923 55.03256226 C-13.16650381 57.00584354 -13.17678349 58.97912086 -13.18785667 60.95239353 C-13.21508444 66.22901943 -13.2304967 71.5056175 -13.24343872 76.78229523 C-13.25738689 81.7366453 -13.28202123 86.69091995 -13.30577087 91.64523315 C-13.36898202 106.12724599 -13.41506884 120.60932948 -13.46324158 135.09140015 C-13.58699158 167.45202515 -13.71074158 199.81265015 -13.83824158 233.15390015 C58.76175842 233.15390015 131.36175842 233.15390015 206.16175842 233.15390015 C206.16175842 210.38390015 206.16175842 187.61390015 206.16175842 164.15390015 C211.07933279 152.35172167 214.24711865 146.50825174 225.16175842 141.15390015 C228.42581574 140.10686735 231.42605673 140.0305158 234.84382629 140.03364563 C236.00206406 140.03227097 237.16030182 140.0308963 238.3536377 140.02947998 C239.62030777 140.03307526 240.88697784 140.03667053 242.19203186 140.04037476 C243.54235838 140.0406569 244.89268505 140.04049837 246.24301147 140.03993225 C249.90589438 140.03964533 253.56874454 140.04552512 257.23161983 140.05250621 C261.06064628 140.05875719 264.88967347 140.05934493 268.71870422 140.06053162 C275.96822676 140.06363978 283.21773421 140.07184624 290.46725011 140.08188111 C298.72111361 140.09305821 306.97497784 140.09855672 315.22884703 140.10357654 C332.20649288 140.11402927 349.18412406 140.13161877 366.16175842 140.15390015 C366.10046558 126.74928606 366.02330005 113.34486537 365.92604351 99.94046116 C365.88137514 93.71580368 365.842111 87.49121112 365.81532288 81.26644897 C365.789255 75.25573881 365.74882736 69.24527894 365.69857216 63.23472404 C365.68192711 60.94512998 365.67039817 58.65549266 365.66414452 56.36584663 C365.65447797 53.15113401 365.62638714 49.93705834 365.59413147 46.72250366 C365.5962841 45.31232468 365.5962841 45.31232468 365.59848022 43.87365723 C365.50022751 36.91937771 364.78590845 29.99672934 359.91175842 24.71640015 C352.5882097 20.55529292 345.37318597 20.87599078 337.14564514 20.91439819 C335.15026024 20.91130656 333.15487534 20.9082087 331.15949082 20.9048754 C329.02571608 20.90305666 326.8919918 20.90598116 324.75822067 20.91007042 C320.30357137 20.91770505 315.84908162 20.90699808 311.39445496 20.89286804 C298.73143341 20.85519509 286.06848591 20.83695548 273.40541077 20.84848022 C266.40280775 20.85469613 259.40046381 20.84312378 252.39792454 20.8120349 C247.97091203 20.79338745 243.54463388 20.79669039 239.11763358 20.81620252 C235.7179779 20.82470108 232.31869279 20.80065214 228.91908264 20.78158569 C227.69505737 20.79335342 226.4710321 20.80512115 225.20991516 20.81724548 C216.00380327 20.71572962 216.00380327 20.71572962 212.90592957 17.7709198 C211.02368527 14.94673002 210.48418999 13.51827984 210.53675842 10.15390015 C210.5238678 9.32890015 210.51097717 8.50390015 210.49769592 7.65390015 C211.2238029 4.92032095 212.18799884 3.17533728 214.24645042 1.2202301 C218.79265257 -1.31082576 224.58797338 -0.51296172 229.6375885 -0.46133423 C231.02434976 -0.46483712 232.41110699 -0.4704976 233.79785156 -0.47814941 C237.55857065 -0.49238742 241.31855762 -0.47534384 245.07920671 -0.45186424 C249.02059523 -0.43173172 252.96195404 -0.43763626 256.90338135 -0.43997192 C263.52519267 -0.43991836 270.1467186 -0.42017027 276.76844788 -0.38809204 C284.41143304 -0.35124511 292.05404379 -0.34241032 299.69710618 -0.34938955 C307.06065133 -0.35570878 314.42406877 -0.34491112 321.78758812 -0.32542419 C324.91538508 -0.31727404 328.04311655 -0.31453627 331.17092323 -0.31611633 C334.86055023 -0.31699932 338.54982492 -0.30266873 342.2393589 -0.2768898 C344.22968962 -0.26638105 346.22008062 -0.27038485 348.21043396 -0.27490234 C358.88177326 -0.17385165 366.84667842 2.25701152 375.16175842 9.15390015 C381.53390195 16.03137808 386.24499832 23.33247017 386.31997681 32.88687134 C386.33466003 34.3086972 386.33466003 34.3086972 386.34963989 35.75924683 C386.35539536 36.79214844 386.36115082 37.82505005 386.36708069 38.88925171 C386.37698029 39.98223572 386.38687988 41.07521973 386.39707947 42.20132446 C386.42867867 45.81570262 386.45344578 49.43009392 386.47816467 53.04452515 C386.49873555 55.54987938 386.51973206 58.05523015 386.5411377 60.56057739 C386.59070109 66.48196992 386.63597004 72.40338542 386.67916006 78.32482696 C386.73342663 85.72882496 386.79435798 93.13276558 386.8551178 100.53671265 C386.96268235 113.74240277 387.06431639 126.94813165 387.16175842 140.15390015 C387.83940247 140.41074585 388.51704651 140.66759155 389.21522522 140.93222046 C390.55580994 141.45187378 390.55580994 141.45187378 391.92347717 141.98202515 C392.80737122 142.32137085 393.69126526 142.66071655 394.60194397 143.01034546 C401.26174307 145.98550034 406.28225422 151.47819564 409.16175842 158.15390015 C411.23940547 165.68506963 411.42401848 172.71660076 411.35707092 180.5015564 C411.35282608 182.38021645 411.35282608 182.38021645 411.34849548 184.29682922 C411.33924997 187.59628121 411.32134003 190.89553087 411.29908752 194.19491577 C411.27847961 197.57379708 411.2694621 200.95270823 411.25941467 204.33163452 C411.23744473 210.93913433 411.2040352 217.54650072 411.16175842 224.15390015 C412.47257385 224.12771606 413.78338928 224.10153198 415.13392639 224.07455444 C420.03528011 223.98349399 424.93656029 223.92644876 429.83851624 223.87924194 C431.95290231 223.8542244 434.06720301 223.82019923 436.18128967 223.77670288 C439.23489034 223.71548683 442.28733981 223.68756223 445.34144592 223.6656189 C446.27415314 223.63981247 447.20686035 223.61400604 448.16783142 223.5874176 C456.25977095 223.58402276 462.29351121 226.27900947 468.74769592 231.07577515 C469.33808655 231.6790564 469.92847717 232.28233765 470.53675842 232.90390015 C471.1426178 233.4968689 471.74847717 234.08983765 472.37269592 234.70077515 C478.11970826 242.580958 478.74621339 249.93713145 478.69520569 259.50131226 C478.70382126 260.81304916 478.71243683 262.12478607 478.72131348 263.47627258 C478.74368497 267.05081131 478.74089679 270.62490471 478.73199201 274.19948649 C478.72685685 277.19384614 478.73419506 280.18812394 478.74146408 283.18247515 C478.75842426 290.25139306 478.7549367 297.32009489 478.73817444 304.38900757 C478.72125606 311.65952696 478.73709207 318.92944579 478.76939732 326.19989961 C478.79616496 332.46350008 478.80334999 338.72691443 478.79488224 344.99056631 C478.78997391 348.72219368 478.79205394 352.45345998 478.81266975 356.18504143 C478.83457859 360.34943521 478.81554768 364.5127038 478.79286194 368.67709351 C478.80455414 369.89870178 478.81624634 371.12031006 478.82829285 372.37893677 C478.72392397 381.82334376 476.32048347 389.76779743 469.41175842 396.52890015 C468.81878967 397.13475952 468.22582092 397.7406189 467.61488342 398.36483765 C459.38281559 404.36847947 451.55053613 404.72991919 441.59797668 404.66183472 C440.12533746 404.66644885 438.65270285 404.6728052 437.18007779 404.68074369 C433.15097825 404.69738917 429.12225935 404.6892127 425.09315872 404.67679882 C420.74141658 404.6677313 416.38973889 404.68172627 412.03800964 404.69271851 C403.52105784 404.71048837 395.00424717 404.7066711 386.48728988 404.69506794 C379.56676862 404.68603024 372.64628688 404.68481107 365.72576141 404.68916321 C364.74039584 404.68977614 363.75503026 404.69038907 362.73980512 404.69102058 C360.73803557 404.69229948 358.73626603 404.69359634 356.7344965 404.69491094 C337.9733041 404.70631163 319.21218994 404.69320981 300.45101038 404.67170948 C284.34869456 404.65382783 268.24649405 404.65695238 252.1441803 404.67538452 C233.44340086 404.69678108 214.74268989 404.70522476 196.04189992 404.69293547 C194.04876408 404.69166126 192.05562823 404.69040378 190.06249237 404.68916321 C189.08182757 404.68854611 188.10116276 404.687929 187.09078084 404.6872932 C180.17552715 404.68383749 173.26031686 404.68967318 166.34506989 404.69908142 C157.92239145 404.71028879 149.49986216 404.70728752 141.07720086 404.68595845 C136.77881977 404.6754327 132.48068755 404.67135219 128.1823082 404.68455505 C124.24946558 404.69645273 120.3171031 404.68996032 116.3843042 404.66864485 C114.95986863 404.66416772 113.53539271 404.66646996 112.11098298 404.676148 C110.17789703 404.68827729 108.2446978 404.67346703 106.31164169 404.65726471 C105.23697545 404.6566153 104.1623092 404.65596589 103.05507731 404.6552968 C99.44929625 404.03043427 97.77415654 402.66484001 95.16175842 400.15390015 C93.54128622 396.91295575 93.60301917 393.65752393 94.16175842 390.15390015 C96.74754078 386.06669578 99.77045249 383.62681006 103.59925842 380.71640015 C114.90881813 372.0800091 121.68929035 359.12299092 124.16175842 345.15390015 C124.78236181 337.77941847 124.76521011 330.36204674 124.84925842 322.96640015 C124.88248288 320.94489432 124.91697716 318.92340894 124.95277405 316.90194702 C125.03708958 311.98604515 125.10417429 307.07018484 125.16175842 302.15390015 C124.20926051 302.15666553 124.20926051 302.15666553 123.23752022 302.15948677 C107.75367252 302.20374426 92.26984697 302.23679478 76.78595161 302.25752449 C69.29791612 302.26781686 61.80992298 302.28183799 54.32191467 302.30477905 C47.79186373 302.3247756 41.26184348 302.33763139 34.73176277 302.34207714 C31.27731963 302.34467395 27.82296424 302.35073461 24.36854935 302.36536026 C20.50289065 302.38159282 16.63731612 302.38187583 12.7716217 302.38095093 C11.63873215 302.38814148 10.50584259 302.39533203 9.33862305 302.40274048 C-3.31196369 302.37009843 -14.6053227 300.33128259 -24.15074158 291.46640015 C-29.98422559 285.24322995 -33.95512948 277.4708771 -33.96966934 268.85779953 C-33.97543106 267.57310575 -33.97543106 267.57310575 -33.98130918 266.26245856 C-33.98044269 265.32628455 -33.97957621 264.39011055 -33.97868347 263.42556763 C-33.98165459 262.42732413 -33.98462572 261.42908062 -33.98768687 260.40058732 C-33.99637863 257.04588889 -33.99788253 253.69122614 -33.99937439 250.33651733 C-34.00400222 247.93514428 -34.00902683 245.53377197 -34.01441956 243.13240051 C-34.02754881 236.60131762 -34.03402625 230.07024215 -34.03843021 223.53914928 C-34.04119418 219.45986743 -34.04543182 215.38058794 -34.04993439 211.30130768 C-34.06212602 200.00346399 -34.07242547 188.70562219 -34.07580948 177.40777206 C-34.07602904 176.68486029 -34.07624861 175.96194851 -34.07647483 175.21713032 C-34.07680225 174.13019104 -34.07680225 174.13019104 -34.07713628 173.0212934 C-34.07757974 171.5529631 -34.07802631 170.08463279 -34.07847595 168.61630249 C-34.07869738 167.88796236 -34.07891881 167.15962223 -34.07914695 166.40921119 C-34.08309411 154.61019741 -34.10054608 142.81124543 -34.12383547 131.01225552 C-34.14756199 118.89383481 -34.16001192 106.77544509 -34.1611774 94.65700078 C-34.16209344 87.85479316 -34.16782786 81.05266606 -34.18599701 74.25048065 C-34.20302885 67.85160291 -34.20464088 61.45283714 -34.195858 55.05394173 C-34.19508678 52.70618595 -34.19944157 50.35842201 -34.20931625 48.01068687 C-34.22201336 44.80366472 -34.21617069 41.59718564 -34.20573425 38.39016724 C-34.21379066 37.46291611 -34.22184706 36.53566499 -34.2301476 35.58031535 C-34.15821244 26.11725063 -30.88553558 18.44468534 -24.83824158 11.15390015 C-17.46827826 4.32545743 -10.13587227 0.0544662 0 0 Z M229.16175842 163.15390015 C226.60927775 166.98262116 226.87441547 170.09119248 226.88760376 174.52935791 C226.88236708 175.39410646 226.8771304 176.258855 226.87173504 177.14980805 C226.85668706 180.05860769 226.85602883 182.96723217 226.85536194 185.87606812 C226.84774371 187.95704446 226.83931679 190.03801798 226.83013916 192.11898804 C226.80815477 197.78012798 226.79939002 203.4412139 226.79431272 209.10239172 C226.79067395 212.63707594 226.78443642 216.17174591 226.77731133 219.70642471 C226.75280363 232.03153355 226.73976197 244.35660022 226.73622131 256.68173218 C226.73258449 268.18058904 226.70268186 279.67917923 226.66081673 291.17795455 C226.62615853 301.04213978 226.61067365 310.90623645 226.60997528 320.77048218 C226.60918097 326.66556954 226.60037166 332.5603854 226.57197762 338.45541 C226.54587354 343.99914025 226.54354904 349.54237241 226.55963326 355.08613586 C226.56145382 357.12232165 226.55470255 359.15853557 226.53881454 361.19466019 C226.51846284 363.97186 226.52884119 366.74729921 226.54702759 369.5244751 C226.53382762 370.33274557 226.52062765 371.14101604 226.50702769 371.97377956 C226.56705218 375.9790371 226.98117678 377.91899469 229.4501791 381.13073921 C233.36438717 384.05120434 236.08014426 384.27955808 240.85676575 384.27415466 C241.7962355 384.27552933 242.73570526 384.27690399 243.7036438 384.27832031 C244.72719467 384.27472504 245.75074554 384.27112976 246.80531311 384.26742554 C247.88854355 384.26757156 248.97177399 384.26771759 250.08782959 384.26786804 C253.66978454 384.26717114 257.25168755 384.25938909 260.83363342 384.2515564 C263.31656364 384.24969143 265.79949422 384.2482679 268.28242493 384.24726868 C274.15072651 384.2438401 280.01900891 384.23595784 285.88730264 384.22591919 C293.22487864 384.21363989 300.56245574 384.20827311 307.90003967 384.20272827 C320.98728873 384.19200191 334.0745224 384.175125 347.16175842 384.15390015 C347.15714946 383.45190302 347.15254049 382.74990589 347.14779186 382.02663612 C347.0371874 364.91552826 346.9545412 347.80451165 346.90269756 330.69312477 C346.87695749 322.41803748 346.8418878 314.14318936 346.78456116 305.86825562 C346.73459701 298.65261301 346.70243692 291.4371437 346.69131595 284.22133291 C346.68481904 280.40341629 346.66963857 276.58599525 346.63310814 272.76823807 C346.59894205 269.1681012 346.5887463 265.56865977 346.59622002 261.96837616 C346.59420792 260.03074732 346.56742117 258.09319268 346.53965759 256.15576172 C346.59632679 246.46894095 348.94663181 239.54862452 355.41175842 232.27890015 C362.56523188 225.73994686 370.31194992 224.54094236 379.72425842 224.40390015 C380.73294983 224.37425171 381.74164124 224.34460327 382.78089905 224.3140564 C385.24126213 224.24409347 387.70071854 224.19103825 390.16175842 224.15390015 C390.21247179 216.41263629 390.2474977 208.67141528 390.2716217 200.93002319 C390.28167873 198.29654337 390.29532602 195.6630747 390.31263733 193.02963257 C390.33689832 189.24420414 390.34824463 185.45892339 390.35707092 181.6734314 C390.37255478 179.90755424 390.37255478 179.90755424 390.38835144 178.10600281 C390.38857803 176.45485725 390.38857803 176.45485725 390.3888092 174.77035522 C390.39325043 173.80438919 390.39769165 172.83842316 390.40226746 171.84318542 C390.05323577 167.94043893 389.17558518 165.10013846 386.28675842 162.40390015 C382.36583343 160.09747368 378.7543847 160.02619853 374.26104736 160.01345825 C373.05402664 160.00774811 371.84700592 160.00203796 370.60340881 159.99615479 C369.26893626 159.99490953 367.93446359 159.99378441 366.59999084 159.99276733 C365.19205597 159.98813707 363.78412235 159.98311212 362.37619019 159.97772217 C358.55376537 159.96461654 354.7313581 159.95815684 350.90891433 159.95371151 C348.5194772 159.95077791 346.13004484 159.94667256 343.74061012 159.94220734 C336.26070052 159.92853744 328.78080184 159.91886822 321.30088061 159.91500545 C312.67359443 159.91052534 304.04646673 159.8929776 295.41922873 159.86400485 C288.7456299 159.84237278 282.07207561 159.83230036 275.39844209 159.83096433 C271.41483959 159.82991742 267.43138618 159.82403401 263.44782066 159.80614471 C259.69918352 159.78963748 255.95080712 159.78752126 252.20214653 159.79628372 C250.17697628 159.79741827 248.15181458 159.78372157 246.12669373 159.76953125 C237.22379322 159.80691601 237.22379322 159.80691601 229.16175842 163.15390015 Z M369.16175842 247.15390015 C365.37637567 253.0029997 365.73556542 259.0562419 365.77357483 265.8531189 C365.76831787 267.0133255 365.76306091 268.1735321 365.75764465 269.36889648 C365.74447144 273.19320246 365.75317369 277.01709014 365.76332092 280.84140015 C365.76129943 283.50506098 365.75839169 286.16870925 365.75462341 288.83236694 C365.74917531 294.41061918 365.75633252 299.988752 365.77064514 305.56698608 C365.78696994 312.00352009 365.78168076 318.43976894 365.76516593 324.87629604 C365.75152397 330.41622821 365.74964458 335.95607486 365.75748193 341.49601841 C365.76214364 344.79881293 365.76163593 348.1014451 365.75287247 351.40423584 C365.74524309 355.08791302 365.75688408 358.77104477 365.77357483 362.4546814 C365.76750214 363.54060577 365.76142944 364.62653015 365.75517273 365.74536133 C365.80412684 371.58552829 365.94078101 376.17690872 369.16175842 381.15390015 C373.93240126 383.9782364 377.97472284 384.5315562 383.45472717 384.54208374 C384.14676239 384.5473407 384.83879761 384.55259766 385.55180359 384.55801392 C387.81785795 384.57111577 390.0831981 384.56251143 392.34925842 384.55233765 C393.9367435 384.55436122 395.52422768 384.55727501 397.11170959 384.56103516 C400.43024085 384.5654452 403.74852898 384.55907026 407.06703186 384.54501343 C411.30709183 384.52792215 415.54658199 384.53777046 419.78662109 384.55573082 C423.06215152 384.56660451 426.33754829 384.56310595 429.61308289 384.55534744 C431.17588876 384.55335533 432.73870702 384.55576974 434.30149841 384.5627861 C436.49091953 384.57046013 438.67943546 384.55871489 440.86878967 384.54208374 C442.11120422 384.53969696 443.35361877 384.53731018 444.63368225 384.53485107 C448.78418034 384.08669292 451.56001548 383.28621931 455.16175842 381.15390015 C458.94714118 375.30480059 458.58795143 369.25155839 458.54994202 362.4546814 C458.55519897 361.29447479 458.56045593 360.13426819 458.56587219 358.93890381 C458.5790454 355.11459783 458.57034316 351.29071015 458.56019592 347.46640015 C458.56221742 344.80273931 458.56512516 342.13909104 458.56889343 339.47543335 C458.57434153 333.89718112 458.56718433 328.31904829 458.5528717 322.74081421 C458.5365469 316.3042802 458.54183609 309.86803135 458.55835092 303.43150425 C458.57199287 297.89157208 458.57387227 292.35172543 458.56603491 286.81178188 C458.56137321 283.50898736 458.56188092 280.20635519 458.57064438 276.90356445 C458.57827376 273.21988728 458.56663277 269.53675552 458.54994202 265.8531189 C458.55601471 264.76719452 458.5620874 263.68127014 458.56834412 262.56243896 C458.51939001 256.722272 458.38273583 252.13089157 455.16175842 247.15390015 C450.39111559 244.3295639 446.348794 243.77624409 440.86878967 243.76571655 C440.17675446 243.76045959 439.48471924 243.75520264 438.77171326 243.74978638 C436.5056589 243.73668453 434.24031875 243.74528886 431.97425842 243.75546265 C430.38677334 243.75343908 428.79928917 243.75052528 427.21180725 243.74676514 C423.893276 243.74235509 420.57498786 243.74873003 417.25648499 243.76278687 C413.01642501 243.77987814 408.77693485 243.77002984 404.53689575 243.75206947 C401.26136532 243.74119578 397.98596856 243.74469435 394.71043396 243.75245285 C393.14762809 243.75444496 391.58480983 243.75203055 390.02201843 243.74501419 C387.83259732 243.73734016 385.64408139 243.7490854 383.45472717 243.76571655 C382.21231262 243.76810333 380.96989807 243.77049011 379.68983459 243.77294922 C375.5393365 244.22110737 372.76350137 245.02158098 369.16175842 247.15390015 Z M-13.83824158 254.15390015 C-14.36392718 265.924116 -14.36392718 265.924116 -9.58824158 275.96640015 C-3.96881941 280.43639505 0.65706502 281.59323498 7.74180603 281.5146637 C9.01743886 281.51850861 9.01743886 281.51850861 10.31884205 281.52243119 C13.1610438 281.52736238 16.00271129 281.51088714 18.84486389 281.49447632 C20.88513171 281.4936299 22.92540044 281.49410547 24.96566772 281.49580383 C30.50033999 281.49666464 36.03481724 281.47902485 41.56944418 281.45808196 C47.35501715 281.43932955 53.14059457 281.43756585 58.92619324 281.43400574 C69.88019523 281.42468107 80.8341074 281.40006151 91.78806984 281.36995727 C104.2595431 281.33642644 116.73102065 281.31993055 129.20252776 281.30487096 C154.85565613 281.27351238 180.50869846 281.22013938 206.16175842 281.15390015 C206.16175842 272.24390015 206.16175842 263.33390015 206.16175842 254.15390015 C133.56175842 254.15390015 60.96175842 254.15390015 -13.83824158 254.15390015 Z M146.16175842 302.15390015 C145.95266579 315.25525254 145.95266579 315.25525254 145.77381897 328.35702515 C145.45742684 346.95626004 142.75989044 363.02985934 133.17738342 379.3140564 C132.01781222 381.28302845 132.01781222 381.28302845 131.16175842 384.15390015 C156.24175842 384.15390015 181.32175842 384.15390015 207.16175842 384.15390015 C206.83175842 357.09390015 206.50175842 330.03390015 206.16175842 302.15390015 C186.36175842 302.15390015 166.56175842 302.15390015 146.16175842 302.15390015 Z " fill="#FFFFFF" transform="translate(33.83824157714844,53.846099853515625)"/>
  <path d="M0 0 C0.88973511 -0.0049649 1.77947021 -0.00992981 2.69616699 -0.01504517 C5.64266734 -0.02966304 8.58911386 -0.03646789 11.53564453 -0.04199219 C13.58204144 -0.04774359 15.62843833 -0.05350133 17.67483521 -0.05926514 C21.9671453 -0.06977381 26.25943666 -0.07561747 30.55175781 -0.07910156 C36.05204857 -0.08458844 41.55209205 -0.10862125 47.05230522 -0.13707352 C51.27992476 -0.15569513 55.50748466 -0.16090523 59.73514175 -0.16243744 C61.76293414 -0.16546516 63.79072546 -0.17349771 65.81847763 -0.18662262 C68.65521839 -0.20367429 71.49135381 -0.20180507 74.328125 -0.1953125 C75.16570343 -0.20452728 76.00328186 -0.21374207 76.86624146 -0.22323608 C82.45409123 -0.18316657 85.49770954 0.90733948 89.90175438 4.45766258 C91.77046978 6.74500539 91.67547815 8.14813015 91.68786621 11.08187866 C91.699216 12.0968895 91.7105658 13.11190033 91.72225952 14.15766907 C91.71932892 15.27046738 91.71639832 16.38326569 91.71337891 17.52978516 C91.72184845 18.70237381 91.73031799 19.87496246 91.73904419 21.08308411 C91.75845366 24.30018416 91.76418982 27.51692879 91.76229668 30.73407698 C91.76217704 33.42041921 91.77073835 36.10670708 91.77907419 38.7930342 C91.79831652 45.1319164 91.80118946 51.47066691 91.79443359 57.80957031 C91.78779507 64.34616423 91.81064686 70.88219352 91.84774733 77.41867292 C91.87845264 83.03238628 91.88980341 88.64591812 91.88591051 94.25971377 C91.88384343 97.61180597 91.88931433 100.96345904 91.9138031 104.31547165 C91.93589771 108.05533554 91.9263367 111.79383283 91.90869141 115.53369141 C91.92195465 116.64244125 91.9352179 117.7511911 91.94888306 118.89353943 C91.86633666 126.41004505 91.86633666 126.41004505 88.88000488 130.3253479 C84.39754457 133.50674391 80.87111144 133.31533757 75.5168457 133.32226562 C74.60774948 133.32723053 73.69865326 133.33219543 72.76200867 133.33731079 C69.74514009 133.35195301 66.7283241 133.35873811 63.71142578 133.36425781 C61.61875913 133.3700079 59.52609251 133.37576565 57.4334259 133.38153076 C53.0409826 133.39204684 48.64855764 133.39788542 44.25610352 133.40136719 C38.626871 133.4068509 32.99788049 133.43087384 27.36872387 133.45933914 C23.04416699 133.47796108 18.71966843 133.48317091 14.39507484 133.48470306 C12.31983429 133.4877315 10.24459481 133.49576643 8.16939354 133.50888824 C5.26549243 133.52593806 2.36218278 133.52407093 -0.54174805 133.51757812 C-1.399599 133.52679291 -2.25744995 133.53600769 -3.14129639 133.54550171 C-7.81559427 133.51275364 -10.93079888 133.22489452 -14.70654297 130.16113281 C-16.87354886 126.91062397 -16.96090763 125.99810344 -16.98069763 122.24038696 C-16.99067276 121.22537613 -17.00064789 120.2103653 -17.01092529 119.16459656 C-17.01158997 118.05179825 -17.01225464 116.93899994 -17.01293945 115.79248047 C-17.02542473 114.03359749 -17.02542473 114.03359749 -17.03816223 112.23918152 C-17.05814908 109.0221518 -17.06890651 105.80527218 -17.07398868 102.58818865 C-17.07763193 100.57783792 -17.08387182 98.5675121 -17.09099007 96.55717087 C-17.11548589 89.54233455 -17.12853669 82.5275722 -17.13208008 75.51269531 C-17.13571532 68.97612342 -17.16560886 62.44002108 -17.20748466 55.90359271 C-17.24218681 50.28989606 -17.2576285 44.67635504 -17.25832611 39.06255186 C-17.25911899 35.71043617 -17.26786105 32.35879875 -17.29632378 29.00679398 C-17.32312216 25.2669693 -17.31844569 21.52844527 -17.3059082 17.78857422 C-17.32074249 16.67982437 -17.33557678 15.57107452 -17.3508606 14.4287262 C-17.27914756 6.93214331 -17.27914756 6.93214331 -14.35658264 2.99691772 C-9.70265323 -0.22703907 -5.45735353 0.00724852 0 0 Z M3.29345703 21.16113281 C3.29345703 51.19113281 3.29345703 81.22113281 3.29345703 112.16113281 C25.73345703 112.16113281 48.17345703 112.16113281 71.29345703 112.16113281 C71.29345703 82.13113281 71.29345703 52.10113281 71.29345703 21.16113281 C48.85345703 21.16113281 26.41345703 21.16113281 3.29345703 21.16113281 Z " fill="#FFFFFF" transform="translate(64.70654296875,113.8388671875)"/>
  <path d="M0 0 C0.89439285 -0.0071553 1.78878571 -0.01431061 2.71028137 -0.02168274 C3.69419357 -0.02437164 4.67810577 -0.02706055 5.6918335 -0.02983093 C7.24326302 -0.03968773 7.24326302 -0.03968773 8.82603455 -0.04974365 C12.26014269 -0.06950757 15.69420703 -0.08114633 19.12835693 -0.09111023 C20.88509861 -0.09722352 20.88509861 -0.09722352 22.67733002 -0.10346031 C28.87633591 -0.12433452 35.07531957 -0.13863025 41.27435303 -0.147995 C47.68151372 -0.15906055 54.08832722 -0.19345871 60.49536514 -0.23316669 C65.41787365 -0.25929774 70.34029902 -0.26768375 75.26287079 -0.27127647 C77.62477716 -0.27615171 79.9866796 -0.28779219 82.34851837 -0.30631447 C85.6546436 -0.33062975 88.9598652 -0.32975435 92.26605225 -0.32279968 C93.24186752 -0.33560974 94.2176828 -0.3484198 95.22306824 -0.36161804 C101.02782857 -0.31711276 104.30844821 0.29249966 108.73773193 4.14717102 C110.46642972 7.60456659 110.22740089 11.3669267 109.73773193 15.14717102 C107.94379525 18.01746971 106.75509917 19.6384874 103.73773193 21.14717102 C102.29206883 21.24747923 100.84192499 21.28655694 99.39280701 21.29434204 C98.48014069 21.30149734 97.56747437 21.30865265 96.62715149 21.31602478 C95.62296677 21.31871368 94.61878204 21.32140259 93.58416748 21.32417297 C92.5287677 21.33074417 91.47336792 21.33731537 90.38598633 21.34408569 C86.88214045 21.36384867 83.37833748 21.37548748 79.87445068 21.38545227 C78.67997629 21.3895278 77.4855019 21.39360332 76.25483131 21.39780235 C69.93378496 21.41867507 63.6127604 21.43297207 57.29168701 21.44233704 C50.75439477 21.45340893 44.21744223 21.48781481 37.6802702 21.52750874 C32.66086686 21.55362102 27.64154514 21.56202406 22.62207985 21.56561852 C20.21189897 21.57049776 17.80172205 21.5821495 15.39160728 21.60065651 C12.02062226 21.62493446 8.65052518 21.62410339 5.27947998 21.61714172 C3.78231194 21.63635681 3.78231194 21.63635681 2.25489807 21.65596008 C-2.11363805 21.6230283 -4.57175588 21.57186104 -8.35862732 19.24279785 C-11.55571447 15.72327789 -11.65138533 13.02637675 -11.62164307 8.40888977 C-11.0516994 4.82196173 -9.06000758 3.27878208 -6.26226807 1.14717102 C-3.93972738 -0.01409932 -2.58644253 0.01418123 0 0 Z " fill="#FFFFFF" transform="translate(195.26226806640625,113.85282897949219)"/>
  <path d="M0 0 C1.26690422 -0.01441132 1.26690422 -0.01441132 2.55940247 -0.02911377 C3.93124947 -0.03548859 3.93124947 -0.03548859 5.33081055 -0.04199219 C6.74042305 -0.0505423 6.74042305 -0.0505423 8.17851257 -0.05926514 C10.16994092 -0.06872193 12.16138496 -0.07525181 14.15283203 -0.07910156 C17.19485943 -0.08879495 20.23620779 -0.11980691 23.27807617 -0.15136719 C25.21231695 -0.15789843 27.14656256 -0.16314843 29.08081055 -0.16699219 C29.98930252 -0.17933899 30.89779449 -0.19168579 31.83381653 -0.20440674 C37.80662473 -0.18341875 41.30243545 0.64828358 45.7175293 4.91113281 C47.47601659 8.24300348 47.41765416 10.44460254 46.9050293 14.16113281 C45.11479145 17.13160154 43.05498102 19.58615695 39.9050293 21.16113281 C38.48181691 21.27049556 37.05375919 21.32011884 35.62646484 21.33813477 C34.74182053 21.35097 33.85717621 21.36380524 32.94572449 21.37702942 C31.98741226 21.38441635 31.02910004 21.39180328 30.04174805 21.39941406 C28.56554741 21.41152168 28.56554741 21.41152168 27.05952454 21.4238739 C24.97394577 21.43771946 22.88834429 21.4484395 20.80273438 21.45629883 C17.61569175 21.47350774 14.42968739 21.51738948 11.24291992 21.56152344 C9.21753693 21.5716506 7.19214512 21.58016663 5.16674805 21.58691406 C3.73838875 21.61317619 3.73838875 21.61317619 2.28117371 21.63996887 C-2.03861068 21.6258342 -4.42964389 21.5720622 -8.17382812 19.25952148 C-11.39210041 15.74432892 -11.48414487 13.04917245 -11.4543457 8.42285156 C-10.88440204 4.83592352 -8.89271022 3.29274387 -6.0949707 1.16113281 C-3.81873492 0.02301492 -2.52912968 0.02319941 0 0 Z " fill="#FFFFFF" transform="translate(195.094970703125,161.8388671875)"/>
  <path d="M0 0 C5.57894737 3.15789474 5.57894737 3.15789474 7 6 C7.55512815 10.63213493 7.6364242 13.98172127 5.125 18 C1.85159987 21.08084718 -0.46126475 21.33387487 -4.9609375 21.29296875 C-8.13134567 20.83745033 -9.8192402 19.24684343 -12 17 C-13.73007568 13.53984865 -13.4835273 9.78327445 -13 6 C-9.68893256 0.51961251 -6.26479585 -0.61419567 0 0 Z " fill="#FFFFFF" transform="translate(197,210)"/>
  <path d="M0 0 C2.75569447 2.18159145 4.43588747 3.87177494 6 7 C6.59873168 12.26883876 5.25400021 14.8846468 2 19 C-1.45739557 20.72869779 -5.21975568 20.48966895 -9 20 C-11.87029869 18.20606332 -13.49131638 17.01736724 -15 14 C-15.5811138 6.91041162 -15.5811138 6.91041162 -13.125 3.0625 C-9.24699241 -0.70144855 -5.21240222 -0.82822281 0 0 Z " fill="#FFFFFF" transform="translate(347,398)"/>
  <path d="M0 0 C2.82741495 1.72786469 3.34358138 2.90801857 5 6 C6.09244247 10.58825837 5.34642399 13.35334189 3.125 17.5 C0.64526085 20.08601369 -1.46769926 20.49243265 -5 20.6875 C-8.53851878 20.43927555 -10.00351401 19.99789159 -13.125 18.125 C-15.7769173 13.70513784 -15.98876625 10.02622846 -15 5 C-11.49659256 -0.8390124 -6.29326704 -1.43403954 0 0 Z " fill="#FFFFFF" transform="translate(451,398)"/>
  <path d="M0 0 C2.82741495 1.72786469 3.34358138 2.90801857 5 6 C6.09244247 10.58825837 5.34642399 13.35334189 3.125 17.5 C0.64526085 20.08601369 -1.46769926 20.49243265 -5 20.6875 C-8.53851878 20.43927555 -10.00351401 19.99789159 -13.125 18.125 C-15.7769173 13.70513784 -15.98876625 10.02622846 -15 5 C-11.49659256 -0.8390124 -6.29326704 -1.43403954 0 0 Z " fill="#FFFFFF" transform="translate(215,54)"/>
</svg>